<?xml version="1.0" standalone="no"?><!DOCTYPE svg PUBLIC "-//W3C//DTD SVG 1.1//EN" "http://www.w3.org/Graphics/SVG/1.1/DTD/svg11.dtd"><svg t="1653812167175" class="icon" viewBox="0 0 1024 1024" version="1.1" xmlns="http://www.w3.org/2000/svg" p-id="16391" xmlns:xlink="http://www.w3.org/1999/xlink" width="200" height="200"><defs><style type="text/css"></style></defs><path d="M377.173333 320.853333a274.773333 216.746667 90 1 0 433.493334 0 274.773333 216.746667 90 1 0-433.493334 0Z" fill="#f85119" opacity=".3" p-id="16392"></path><path d="M512 989.866667c-139.946667 0-238.933333-6.826667-310.613333-20.48-47.786667-10.24-83.626667-22.186667-109.226667-39.253334C54.613333 904.533333 34.133333 868.693333 34.133333 829.44c0-54.613333 37.546667-110.933333 107.52-158.72 63.146667-44.373333 145.066667-76.8 233.813334-93.866667 1.706667 0 3.413333-3.413333 3.413333-5.12 1.706667-5.12 0-8.533333-5.12-13.653333 0-1.706667-1.706667-1.706667-1.706667-3.413333-29.013333-29.013333-54.613333-68.266667-71.68-112.64-18.773333-46.08-27.306667-95.573333-27.306666-143.36 0-76.8 23.893333-143.36 68.266666-191.146667C385.706667 59.733333 445.44 34.133333 512 34.133333s126.293333 25.6 170.666667 73.386667c44.373333 49.493333 68.266667 114.346667 68.266666 191.146667 0 47.786667-10.24 97.28-27.306666 143.36-18.773333 46.08-44.373333 85.333333-75.093334 116.053333-3.413333 3.413333-5.12 8.533333-3.413333 11.946667 1.706667 3.413333 3.413333 5.12 5.12 5.12 87.04 17.066667 168.96 49.493333 232.106667 93.866666 69.973333 47.786667 107.52 104.106667 107.52 158.72 0 39.253333-20.48 75.093333-58.026667 98.986667-27.306667 17.066667-63.146667 30.72-109.226667 39.253333-71.68 17.066667-170.666667 23.893333-310.613333 23.893334z m0-904.533334c-51.2 0-98.986667 20.48-133.12 58.026667-35.84 39.253333-54.613333 93.866667-54.613333 157.013333 0 40.96 8.533333 85.333333 23.893333 124.586667 15.36 37.546667 35.84 69.973333 61.44 95.573333l1.706667 1.706667c17.066667 18.773333 23.893333 42.666667 17.066666 64.853333-6.826667 20.48-22.186667 35.84-42.666666 40.96-81.92 15.36-158.72 46.08-215.04 87.04-54.613333 37.546667-85.333333 80.213333-85.333334 116.053334 0 22.186667 11.946667 40.96 34.133334 56.32 20.48 13.653333 51.2 23.893333 92.16 32.426666 68.266667 11.946667 163.84 18.773333 300.373333 18.773334s232.106667-6.826667 300.373333-20.48c40.96-8.533333 69.973333-18.773333 92.16-32.426667 22.186667-15.36 34.133333-34.133333 34.133334-56.32 0-35.84-30.72-78.506667-85.333334-116.053333-56.32-39.253333-133.12-69.973333-215.04-85.333334-20.48-5.12-37.546667-20.48-42.666666-40.96-6.826667-22.186667 0-44.373333 17.066666-63.146666 27.306667-25.6 47.786667-59.733333 64.853334-98.986667 15.36-39.253333 23.893333-81.92 23.893333-124.586667 0-63.146667-18.773333-117.76-54.613333-157.013333C610.986667 105.813333 563.2 85.333333 512 85.333333z" fill="#f85119" p-id="16393"></path></svg>