<?xml version="1.0" standalone="no"?><!DOCTYPE svg PUBLIC "-//W3C//DTD SVG 1.1//EN" "http://www.w3.org/Graphics/SVG/1.1/DTD/svg11.dtd"><svg t="1653818502190" class="icon" viewBox="0 0 1024 1024" version="1.1" xmlns="http://www.w3.org/2000/svg" p-id="4092" xmlns:xlink="http://www.w3.org/1999/xlink" width="200" height="200"><defs><style type="text/css"></style></defs><path d="M772.25 1024H271.48c-125.19 0-227.04-101.85-227.04-227.01V227.01C44.44 101.85 146.28 0 271.48 0h379.54c26.44 0 47.88 21.45 47.88 47.88s-21.45 47.88-47.88 47.88H271.48c-72.39 0-131.27 58.89-131.27 131.24v569.98c0 72.35 58.89 131.24 131.27 131.24h500.78c72.35 0 131.24-58.89 131.24-131.24 0-26.44 21.45-47.88 47.88-47.88 26.44 0 47.88 21.45 47.88 47.88 0 125.17-101.84 227.02-227.01 227.02z" fill="#ffffff" p-id="4093"></path><path d="M484.02 672.33c-12.25 0-24.5-4.68-33.85-14.03-18.7-18.7-18.7-49.01 0-67.71l437.4-437.4c18.7-18.7 49.01-18.7 67.71 0s18.7 49.01 0 67.71l-437.4 437.4c-9.36 9.35-21.61 14.03-33.86 14.03z" fill="#ffffff" p-id="4094"></path></svg>