<?xml version="1.0" standalone="no"?><!DOCTYPE svg PUBLIC "-//W3C//DTD SVG 1.1//EN" "http://www.w3.org/Graphics/SVG/1.1/DTD/svg11.dtd"><svg t="1651892682656" class="icon" viewBox="0 0 1024 1024" version="1.1" xmlns="http://www.w3.org/2000/svg" p-id="1687" xmlns:xlink="http://www.w3.org/1999/xlink" width="200" height="200"><defs><style type="text/css"></style></defs><path d="M512 876.16A364.16 364.16 0 1 0 147.84 512 364.48 364.48 0 0 0 512 876.16zM512 928a416 416 0 1 1 416-416 416 416 0 0 1-416 416z" p-id="1688" fill="#f85119"></path><path d="M512 938.56A426.56 426.56 0 1 1 938.56 512 427.2 427.2 0 0 1 512 938.56z m0-832A405.44 405.44 0 1 0 917.44 512 405.76 405.76 0 0 0 512 106.56z m0 779.84A374.4 374.4 0 1 1 886.4 512 375.04 375.04 0 0 1 512 886.4zM512 160a353.6 353.6 0 1 0 353.6 352A354.24 354.24 0 0 0 512 160z" p-id="1689" fill="#f85119"></path><path d="M668.16 480v-87.04a67.84 67.84 0 0 0-64-64h-211.2a68.16 68.16 0 0 0-64 64v237.44a67.52 67.52 0 0 0 64 64h40.96a25.92 25.92 0 1 1 0 51.84h-40.96a114.88 114.88 0 0 1-114.88-114.88v-238.4a114.88 114.88 0 0 1 114.88-114.88h212.16a115.2 115.2 0 0 1 114.88 114.88V480c0 7.68 0 33.6-25.92 33.6s-25.92-27.52-25.92-33.6z" p-id="1690" fill="#f85119"></path><path d="M433.92 749.12h-40.96a118.72 118.72 0 0 1-118.08-118.08v-238.08a118.72 118.72 0 0 1 118.08-118.08h212.16a118.72 118.72 0 0 1 118.08 118.08V480c0 32-16 36.8-29.12 36.8s-29.12-6.4-29.12-36.8v-87.04a64 64 0 0 0-59.84-59.84h-212.16a64 64 0 0 0-59.84 60.48v237.44a64 64 0 0 0 59.84 59.84h40.96a27.52 27.52 0 0 1 29.44 29.12 27.84 27.84 0 0 1-29.44 29.12zM392.96 281.28a112 112 0 0 0-111.68 111.68v238.08a112 112 0 0 0 111.68 111.68h40.96a22.72 22.72 0 0 0 0-45.44h-40.96a71.04 71.04 0 0 1-66.24-66.24V393.6a71.36 71.36 0 0 1 66.24-66.88h212.16A70.72 70.72 0 0 1 672 392.96V480c0 20.48 7.68 32 23.04 32 20.48 0 22.72-17.28 22.72-32v-87.04a112.32 112.32 0 0 0-111.68-111.68z" p-id="1691" fill="#f85119"></path><path d="M582.08 408a28.48 28.48 0 0 1 19.52 7.36 23.04 23.04 0 0 1 0 34.88 28.48 28.48 0 0 1-19.52 7.36H409.6a25.92 25.92 0 0 1-27.52-24.64 26.56 26.56 0 0 1 27.52-24.96zM496.32 512c6.72 0 25.6 8.32 25.6 22.72a35.84 35.84 0 0 1-25.6 29.12h-88.96a29.44 29.44 0 0 1-25.28-29.12 24.32 24.32 0 0 1 25.28-22.72z" p-id="1692" fill="#f85119"></path><path d="M624 626.56l44.16-44.48a21.12 21.12 0 0 1 29.76 29.76l-44.48 44.16 44.48 44.16a21.76 21.76 0 0 1 5.44 20.48 21.44 21.44 0 0 1-14.72 14.72 21.76 21.76 0 0 1-20.48-5.44l-44.16-44.48-44.48 44.48a21.12 21.12 0 0 1-20.16 5.44 21.44 21.44 0 0 1-14.72-14.72 21.76 21.76 0 0 1 5.44-20.48l44.48-44.16-44.48-44.16a21.44 21.44 0 0 1 0-29.76 21.12 21.12 0 0 1 29.44 0z" p-id="1693" fill="#f85119"></path></svg>