<?xml version="1.0" standalone="no"?><!DOCTYPE svg PUBLIC "-//W3C//DTD SVG 1.1//EN" "http://www.w3.org/Graphics/SVG/1.1/DTD/svg11.dtd"><svg t="1651892576277" class="icon" viewBox="0 0 1024 1024" version="1.1" xmlns="http://www.w3.org/2000/svg" p-id="1482" xmlns:xlink="http://www.w3.org/1999/xlink" width="200" height="200"><defs><style type="text/css"></style></defs><path d="M704 608a107.84 107.84 0 1 0 103.68 107.84 125.44 125.44 0 0 0-29.44-77.12A114.88 114.88 0 0 0 704 608z m0 154.24a46.4 46.4 0 0 1 0-92.48 61.44 61.44 0 0 1 32 12.16 42.88 42.88 0 0 1 11.84 33.92 46.72 46.72 0 0 1-43.84 44.8z" p-id="1483" fill="#f85119"></path><path d="M915.84 661.76a87.04 87.04 0 0 1-62.4-107.84 18.24 18.24 0 0 0-3.2-12.48 213.12 213.12 0 0 0-71.04-43.2 17.6 17.6 0 0 0-12.16 3.2 79.04 79.04 0 0 1-62.4 27.84 84.16 84.16 0 0 1-62.4-27.84 16.32 16.32 0 0 0-11.84-3.2 214.4 214.4 0 0 0-71.36 43.2 9.6 9.6 0 0 0-2.88 12.48 91.2 91.2 0 0 1-8.96 67.84 77.12 77.12 0 0 1-53.44 40c-2.88 0-5.76 3.2-8.96 9.28a217.92 217.92 0 0 0 0 86.4c0 3.2 3.2 6.08 8.96 9.28a80.32 80.32 0 0 1 53.44 40 91.84 91.84 0 0 1 8.96 68.16 19.52 19.52 0 0 0 2.88 12.16 214.4 214.4 0 0 0 71.36 43.2h3.2a10.56 10.56 0 0 0 8.64-2.88 80 80 0 0 1 61.76-27.84 83.2 83.2 0 0 1 64 28.48c3.2 2.88 6.08 2.88 12.16 2.88a213.12 213.12 0 0 0 71.04-43.2c3.2-3.2 6.08-6.08 3.2-12.16A82.56 82.56 0 0 1 912.64 768c3.2 0 6.08-3.2 8.96-9.28a206.72 206.72 0 0 0 0-86.4c0-4.16-2.88-7.36-5.76-10.56zM864 738.88a96 96 0 0 0-50.56 40 77.76 77.76 0 0 0-8.96 61.76 102.4 102.4 0 0 1-44.48 24.64 82.24 82.24 0 0 0-59.52-24.64 93.12 93.12 0 0 0-59.52 24.64 326.08 326.08 0 0 1-44.48-24.64 74.88 74.88 0 0 0-8.96-61.76 93.12 93.12 0 0 0-50.56-40 160 160 0 0 1 0-52.48 93.12 93.12 0 0 0 51.84-40 76.48 76.48 0 0 0 8.96-61.76 104.32 104.32 0 0 1 44.48-24.64 82.24 82.24 0 0 0 59.52 24.64 93.12 93.12 0 0 0 59.52-24.64 308.16 308.16 0 0 1 44.48 24.64 76.16 76.16 0 0 0 8.96 61.76A93.12 93.12 0 0 0 864 686.4a160 160 0 0 1 0 52.48zM185.28 776h59.2a182.72 182.72 0 0 1 178.24-185.28 171.52 171.52 0 0 1 77.44 18.56 307.84 307.84 0 0 1 38.4-49.28 64 64 0 0 1-14.72-9.28A156.16 156.16 0 0 0 576 436.8a148.48 148.48 0 1 0-296.96 0 144.64 144.64 0 0 0 50.56 113.92 246.4 246.4 0 0 0-144.32 225.28z m237.44-431.68A88.96 88.96 0 0 1 512 436.8a89.28 89.28 0 1 1-178.24 0 89.28 89.28 0 0 1 88.96-92.48z" p-id="1484" fill="#f85119"></path><path d="M868.16 128H155.52A60.8 60.8 0 0 0 96 190.08v616.64a60.8 60.8 0 0 0 59.52 61.76h311.68a384 384 0 0 1-11.84-61.76H185.28a32 32 0 0 1-29.76-32V220.8a32 32 0 0 1 29.76-32H838.4a32 32 0 0 1 29.76 32v271.36A246.72 246.72 0 0 1 928 529.28V190.08A60.8 60.8 0 0 0 868.16 128z" p-id="1485" fill="#f85119"></path><path d="M660.16 344.32h148.48a28.8 28.8 0 0 0 29.76-32 28.48 28.48 0 0 0-29.76-32h-148.48a28.48 28.48 0 0 0-29.44 32 28.8 28.8 0 0 0 29.44 32z m0 123.2h89.28a28.8 28.8 0 0 0 29.76-32 28.8 28.8 0 0 0-29.76-32h-89.28a28.8 28.8 0 0 0-29.44 32 28.48 28.48 0 0 0 29.44 32z" p-id="1486" fill="#f85119"></path></svg>