<?xml version="1.0" standalone="no"?><!DOCTYPE svg PUBLIC "-//W3C//DTD SVG 1.1//EN" "http://www.w3.org/Graphics/SVG/1.1/DTD/svg11.dtd"><svg t="1651821392205" class="icon" viewBox="0 0 1024 1024" version="1.1" xmlns="http://www.w3.org/2000/svg" p-id="17240" xmlns:xlink="http://www.w3.org/1999/xlink" width="200" height="200"><defs><style type="text/css"></style></defs><path d="M761.173333 525.653333m-206.506666 0a206.506667 206.506667 0 1 0 413.013333 0 206.506667 206.506667 0 1 0-413.013333 0Z" fill="#f85119" opacity=".3" p-id="17241"></path><path d="M512 989.866667H59.733333c-13.653333 0-25.6-11.946667-25.6-25.6V512C34.133333 249.173333 249.173333 34.133333 512 34.133333s477.866667 215.04 477.866667 477.866667-215.04 477.866667-477.866667 477.866667zM85.333333 938.666667h426.666667c235.52 0 426.666667-191.146667 426.666667-426.666667S747.52 85.333333 512 85.333333 85.333333 276.48 85.333333 512v426.666667z" fill="#f85119" p-id="17242"></path><path d="M715.093333 402.773333H308.906667c-13.653333 0-25.6-11.946667-25.6-25.6s11.946667-25.6 25.6-25.6h406.186666c13.653333 0 25.6 11.946667 25.6 25.6s-10.24 25.6-25.6 25.6zM715.093333 583.68H308.906667c-13.653333 0-25.6-11.946667-25.6-25.6s11.946667-25.6 25.6-25.6h406.186666c13.653333 0 25.6 11.946667 25.6 25.6s-10.24 25.6-25.6 25.6zM624.64 762.88H399.36c-13.653333 0-25.6-11.946667-25.6-25.6s11.946667-25.6 25.6-25.6h226.986667c13.653333 0 25.6 11.946667 25.6 25.6s-11.946667 25.6-27.306667 25.6z" fill="#f85119" p-id="17243"></path></svg>