<?xml version="1.0" standalone="no"?><!DOCTYPE svg PUBLIC "-//W3C//DTD SVG 1.1//EN" "http://www.w3.org/Graphics/SVG/1.1/DTD/svg11.dtd"><svg t="1651821118959" class="icon" viewBox="0 0 1024 1024" version="1.1" xmlns="http://www.w3.org/2000/svg" p-id="16968" xmlns:xlink="http://www.w3.org/1999/xlink" width="200" height="200"><defs><style type="text/css"></style></defs><path d="M694.784 969.386667H187.733333c-37.717333 0-68.266667-30.549333-68.266666-68.266667V341.162667c0-37.717333 30.549333-68.266667 68.266666-68.266667h507.050667c37.717333 0 68.266667 30.549333 68.266667 68.266667V901.12c0 37.717333-30.549333 68.266667-68.266667 68.266667z" fill="#f85119" opacity=".3" p-id="16969"></path><path d="M839.168 989.866667H184.832c-50.176 0-90.965333-45.226667-90.965333-101.034667V135.168C93.866667 79.36 134.656 34.133333 184.832 34.133333h654.165333c50.176 0 90.965333 45.226667 90.965334 101.034667v753.834667c0.170667 55.637333-40.618667 100.864-90.794667 100.864zM184.832 85.333333C162.986667 85.333333 145.066667 107.690667 145.066667 135.168v753.834667c0 27.477333 17.92 49.834667 39.765333 49.834666h654.165333c22.016 0 39.765333-22.357333 39.765334-49.834666V135.168C878.933333 107.690667 861.013333 85.333333 839.168 85.333333H184.832z" fill="#f85119" p-id="16970"></path><path d="M704 687.957333h-384c-14.165333 0-25.6-11.434667-25.6-25.6s11.434667-25.6 25.6-25.6h383.829333c14.165333 0 25.6 11.434667 25.6 25.6s-11.434667 25.6-25.429333 25.6zM704 840.704h-384c-14.165333 0-25.6-11.434667-25.6-25.6s11.434667-25.6 25.6-25.6h383.829333c14.165333 0 25.6 11.434667 25.6 25.6s-11.434667 25.6-25.429333 25.6zM443.050667 499.541333c-11.264 0-22.357333-4.437333-30.549334-12.970666l-103.082666-108.032a25.6 25.6 0 0 1 37.034666-35.328l97.109334 101.717333 235.349333-220.16a25.6 25.6 0 0 1 34.986667 37.376L471.893333 488.277333c-8.021333 7.509333-18.432 11.264-28.842666 11.264z" fill="#f85119" p-id="16971"></path></svg>