<?xml version="1.0" standalone="no"?><!DOCTYPE svg PUBLIC "-//W3C//DTD SVG 1.1//EN" "http://www.w3.org/Graphics/SVG/1.1/DTD/svg11.dtd"><svg t="1651890381953" class="icon" viewBox="0 0 1024 1024" version="1.1" xmlns="http://www.w3.org/2000/svg" p-id="16269" xmlns:xlink="http://www.w3.org/1999/xlink" width="200" height="200"><defs><style type="text/css"></style></defs><path d="M617.813333 658.944m-273.066666 0a273.066667 273.066667 0 1 0 546.133333 0 273.066667 273.066667 0 1 0-546.133333 0Z" fill="#f85119" opacity=".3" p-id="16270"></path><path d="M481.792 989.866667H162.986667a94.037333 94.037333 0 0 1-93.866667-93.866667v-768c0-51.712 42.154667-93.866667 93.866667-93.866667h697.856c51.712 0 93.866667 42.154667 93.866666 93.866667v323.925333c0 14.165333-11.434667 25.6-25.6 25.6s-25.6-11.434667-25.6-25.6V128a42.666667 42.666667 0 0 0-42.666666-42.666667H162.986667a42.666667 42.666667 0 0 0-42.666667 42.666667v768a42.666667 42.666667 0 0 0 42.666667 42.666667h318.634666c14.165333 0 25.6 11.434667 25.6 25.6s-11.434667 25.6-25.429333 25.6z" fill="#f85119" p-id="16271"></path><path d="M588.117333 244.394667H221.525333c-14.165333 0-25.6-11.434667-25.6-25.6s11.434667-25.6 25.6-25.6h366.421334c14.165333 0 25.6 11.434667 25.6 25.6s-11.264 25.6-25.429334 25.6zM588.117333 413.866667H221.525333c-14.165333 0-25.6-11.434667-25.6-25.6s11.434667-25.6 25.6-25.6h366.421334c14.165333 0 25.6 11.434667 25.6 25.6s-11.264 25.6-25.429334 25.6zM380.586667 583.338667h-159.061334c-14.165333 0-25.6-11.434667-25.6-25.6s11.434667-25.6 25.6-25.6h159.061334c14.165333 0 25.6 11.434667 25.6 25.6s-11.434667 25.6-25.6 25.6z" fill="#f85119" p-id="16272"></path><path d="M715.946667 981.333333c-131.754667 0-238.933333-107.178667-238.933334-238.933333s107.178667-238.933333 238.933334-238.933333 238.933333 107.178667 238.933333 238.933333-107.178667 238.933333-238.933333 238.933333z m0-426.666666c-103.594667 0-187.733333 84.138667-187.733334 187.733333s84.138667 187.733333 187.733334 187.733333 187.733333-84.138667 187.733333-187.733333-84.309333-187.733333-187.733333-187.733333z" fill="#f85119" p-id="16273"></path><path d="M779.946667 746.666667h-128c-14.165333 0-25.6-11.434667-25.6-25.6s11.434667-25.6 25.6-25.6h128c14.165333 0 25.6 11.434667 25.6 25.6s-11.434667 25.6-25.6 25.6zM779.946667 810.666667h-128c-14.165333 0-25.6-11.434667-25.6-25.6s11.434667-25.6 25.6-25.6h128c14.165333 0 25.6 11.434667 25.6 25.6s-11.434667 25.6-25.6 25.6z" fill="#f85119" p-id="16274"></path><path d="M715.946667 874.666667c-14.165333 0-25.6-11.434667-25.6-25.6v-128c0-14.165333 11.434667-25.6 25.6-25.6s25.6 11.434667 25.6 25.6v128c0 14.165333-11.434667 25.6-25.6 25.6z" fill="#f85119" p-id="16275"></path><path d="M715.946667 746.666667l-82.090667-82.090667c-10.069333-10.069333-10.069333-26.282667 0-36.181333s26.282667-10.069333 36.181333 0l45.909334 45.909333 45.909333-45.909333c10.069333-10.069333 26.282667-10.069333 36.181333 0s10.069333 26.282667 0 36.181333l-82.090666 82.090667z" fill="#f85119" p-id="16276"></path></svg>