<?xml version="1.0" standalone="no"?><!DOCTYPE svg PUBLIC "-//W3C//DTD SVG 1.1//EN" "http://www.w3.org/Graphics/SVG/1.1/DTD/svg11.dtd"><svg t="1651829272375" class="icon" viewBox="0 0 1024 1024" version="1.1" xmlns="http://www.w3.org/2000/svg" p-id="8573" xmlns:xlink="http://www.w3.org/1999/xlink" width="200" height="200"><defs><style type="text/css"></style></defs><path d="M165.003636 95.557818a139.636364 139.636364 0 0 1 189.905455 32.698182l88.157091 118.714182a132.980364 132.980364 0 0 1-7.842909 168.168727l-14.708364 16.360727a23.272727 23.272727 0 0 0-2.583273 27.624728 344.785455 344.785455 0 0 0 53.969455 68.584727c22.690909 22.155636 54.714182 47.429818 95.883636 75.543273a23.272727 23.272727 0 0 0 29.626182-2.792728 250.647273 250.647273 0 0 1 62.487273-45.940363c53.992727-27.997091 124.974545 12.637091 239.290182 115.712l14.196363 12.939636a139.706182 139.706182 0 0 1 9.541818 196.165818l-5.98109 6.609455c-30.068364 32.791273-56.692364 55.482182-81.384728 68.328727-48.593455 25.250909-65.768727 29.928727-121.157818 30.464l-14.661818 0.046546c-95.813818-0.046545-285.835636-101.073455-433.966546-254.999273C104.866909 562.571636 48.267636 458.379636 32.023273 316.741818c-8.378182-77.730909 30.999273-153.018182 83.828363-188.253091z m115.153455 88.203637a46.545455 46.545455 0 0 0-63.301818-10.891637l-49.338182 33.047273c-25.204364 16.802909-47.406545 59.275636-42.961455 100.514909 13.102545 114.362182 56.948364 198.539636 191.674182 341.387636l16.616727 17.408c132.096 137.285818 299.822545 226.443636 366.941091 226.466909 46.778182 0.046545 53.620364-0.162909 80.104728-13.474909l12.730181-6.516363c11.357091-5.934545 26.996364-18.734545 45.847273-38.167273l9.658182-10.286545 5.585455-6.167273a46.545455 46.545455 0 0 0-3.258182-65.326546c-50.315636-46.149818-91.042909-78.592-121.390546-96.977454-13.242182-8.029091-23.761455-12.916364-30.882909-14.824727l-0.372363-0.093091-2.187637 1.233454a156.904727 156.904727 0 0 0-26.251636 19.316364l-10.030546 9.588363a116.363636 116.363636 0 0 1-144.011636 10.14691c-45.312-30.929455-81.408-59.415273-108.450909-85.783273a437.713455 437.713455 0 0 1-68.561455-86.970182 116.363636 116.363636 0 0 1 12.962909-138.100364l14.708364-16.360727a39.889455 39.889455 0 0 0 2.350546-50.455273z m341.504 53.201454c90.926545 17.733818 154.856727 88.482909 171.589818 181.922909a46.545455 46.545455 0 1 1-91.648 16.407273c-10.216727-57.064727-46.219636-96.907636-97.745454-106.961455a46.545455 46.545455 0 0 1 17.803636-91.368727z m3.584-206.708364c186.507636 32.977455 319.581091 175.197091 357.655273 368.29091a46.545455 46.545455 0 1 1-91.345455 18.01309c-30.906182-156.858182-135.517091-268.637091-282.530909-294.632727a46.545455 46.545455 0 0 1 16.221091-91.671273z" p-id="8574" fill="#f85119"></path></svg>