<?xml version="1.0" standalone="no"?><!DOCTYPE svg PUBLIC "-//W3C//DTD SVG 1.1//EN" "http://www.w3.org/Graphics/SVG/1.1/DTD/svg11.dtd"><svg t="1655034043233" class="icon" viewBox="0 0 1024 1024" version="1.1" xmlns="http://www.w3.org/2000/svg" p-id="16449" xmlns:xlink="http://www.w3.org/1999/xlink" width="200" height="200"><defs><style type="text/css"></style></defs><path d="M718.425397 440.30194l-268.732275 268.732275-133.643739-139.061728c-11.919577-11.919577-31.063139-11.919577-42.982716 0-11.919577 11.919577-11.919577 31.063139 0 42.982716l154.593298 160.733686c11.558377 11.558377 29.618342 11.919577 41.537919 1.444797 1.444797-1.083598 2.528395-2.167196 3.973192-3.250794l288.598236-288.598236c11.919577-11.919577 11.919577-31.063139 0-42.982716C749.849735 428.382363 730.344974 428.382363 718.425397 440.30194z" p-id="16450" fill="#d81e06"></path><path d="M796.444444 195.047619l-98.968607 0c-22.755556-81.269841-97.52381-140.867725-185.656437-140.867725-88.493827 0-162.900882 59.959083-185.656437 140.867725L227.194356 195.047619C179.516049 195.047619 140.867725 233.695944 140.867725 281.37425l0 594.895238c0 47.678307 38.648325 86.326631 86.326631 86.326631l569.250088 0c47.678307 0 86.326631-38.648325 86.326631-86.326631L882.771076 281.37425C882.771076 233.695944 844.122751 195.047619 796.444444 195.047619zM511.8194 118.473369c52.373898 0 97.52381 31.785538 117.75097 76.57425l-235.140741 0C414.295591 149.897707 459.445503 118.473369 511.8194 118.473369zM825.340388 876.269489c0 15.892769-13.003175 28.895944-28.895944 28.895944L227.194356 905.165432c-15.892769 0-28.895944-13.003175-28.895944-28.895944L198.298413 281.37425c0-15.892769 13.003175-28.895944 28.895944-28.895944l91.744621 0 0 86.687831 65.738272 0 0-86.687831 255.729101 0 0 0 0 86.687831 65.738272 0 0-86.687831 90.299824 0c15.892769 0 28.895944 13.003175 28.895944 28.895944L825.340388 876.269489z" p-id="16451" fill="#d81e06"></path></svg>