<?xml version="1.0" standalone="no"?><!DOCTYPE svg PUBLIC "-//W3C//DTD SVG 1.1//EN"
    "http://www.w3.org/Graphics/SVG/1.1/DTD/svg11.dtd">
<svg t="1638175925777" class="icon" viewBox="0 0 1024 1024" version="1.1" xmlns="http://www.w3.org/2000/svg" p-id="3159"
     width="200" height="200">
  <defs>
    <style type="text/css"></style>
  </defs>
  <path
      d="M511.165533 264.095861c-101.619595 0-184.008575-83.130273-184.008575-185.664197 50.810309 0 96.817572 20.787944 130.122515 54.392884 33.28344 33.582415 53.886061 80.002304 53.88606 131.271313z"
      fill="#9AD14B" p-id="3160"></path>
  <path
      d="M574.832771 310.606876c182.835202 0 310.23623 183.118819 248.11813 356.635641L766.475435 824.906522a183.676836 183.676836 0 0 1-17.925161 36.66431 182.041691 182.041691 0 0 1-35.69469 40.906267h-0.022525a181.586062 181.586062 0 0 1-41.050635 26.258563c-34.566369 15.987969-74.111891 16.992401-109.918185 4.197929a150.678036 150.678036 0 0 0-25.892012-6.676756 146.978738 146.978738 0 0 0-23.811477-1.919785 147.830611 147.830611 0 0 0-49.703489 8.596541c-11.928264 4.241957-24.232294 6.989041-36.646904 8.150128-24.918297 2.322172-50.21236-1.675076-73.271281-12.348057-43.175196-19.984194-77.852145-56.782632-94.714512-103.82914l-56.452942-157.664005c-62.140624-173.516822 65.260403-356.635641 248.095606-356.635641H574.832771z"
      fill="#F95428" p-id="3161"></path>
  <path
      d="M408.307038 824.906522l-56.452942-157.664005c-60.706161-169.51343 59.490809-348.154799 235.537652-356.314141-4.157998-0.19249-8.338522-0.323548-12.558977-0.323548H449.468252c-182.835202 0-310.23623 183.118819-248.095606 356.635641l56.452942 157.664006c16.862367 47.046507 51.540339 83.844945 94.714512 103.829139 23.058921 10.672981 48.352984 14.670229 73.271281 12.348057 12.41461-1.161086 24.71864-3.907146 36.646904-8.150127 10.914618-3.891788 22.158926-6.425904 33.510742-7.677092-39.882381-20.614907-71.72931-55.895948-87.661989-100.34793z"
      fill="#E54728" p-id="3162"></path>
  <path
      d="M705.733438 850.524133c-3.069608 0-6.174029-0.858016-8.94671-2.654934-7.713952-4.994513-9.956261-15.35316-5.005775-23.136737a115.323276 115.323276 0 0 0 11.215639-22.969843l56.477515-157.670149c22.031964-61.540627 13.293103-127.553586-23.971203-181.113028-16.084215-23.117283-36.054074-42.033564-59.358728-56.230758-7.847057-4.780521-10.367863-15.071592-5.629322-22.992369 4.737517-7.917705 14.939511-10.463084 22.786568-5.680515 27.277329 16.614587 50.616795 38.704913 69.368231 65.655622 43.566321 62.616731 53.779577 139.792087 28.022717 211.741533l-56.477514 157.672197a148.908762 148.908762 0 0 1-14.497192 29.67322 16.542915 16.542915 0 0 1-13.984226 7.705761z m-79.664422-465.702977c-9.165821 0-16.608444-7.497912-16.608444-16.746668 0-9.248756 7.420097-16.746668 16.585919-16.746669h0.022525c9.167869 0 16.597181 7.497912 16.597181 16.746669 0 9.248756-7.43136 16.746668-16.597181 16.746668z"
      fill="#FFFFFF" p-id="3163"></path>
  <path d="M511.165533 264.095861c-101.619595 0-184.008575-83.130273-184.008575-185.664197l184.008575 185.664197z"
        fill="#90BC42" p-id="3164"></path>
  <path
      d="M804.336666 414.241477c-53.221559-76.500616-136.87811-120.374102-229.51311-120.374102h-46.071768v-1.189755c0-48.286432 23.710112-93.271858 63.421505-120.343385 7.597229-5.177788 9.592782-15.58763 4.463116-23.251412-5.129665-7.662758-15.446334-9.677764-23.045611-4.504072a178.240005 178.240005 0 0 0-54.797319 59.598317C493.419553 121.724607 417.107332 61.678852 327.154911 61.678852c-9.165821 0-16.597181 7.497912-16.597181 16.746668 0 106.463596 81.882157 193.990433 185.439966 201.841586-0.283616 4.114995-0.440271 8.250468-0.44027 12.412562v1.189755h-46.094294c-92.623738 0-176.269026 43.871438-229.489561 120.367958-53.221559 76.498568-65.69453 170.788168-34.219271 258.692819l56.468299 157.670149c18.137105 50.63932 54.854656 90.896444 103.387845 113.350249 25.23263 11.678436 53.493913 16.440527 81.722431 13.794807 13.755899-1.283952 27.429888-4.320796 40.643128-9.02555a131.318412 131.318412 0 0 1 44.17758-7.643304c7.119075 0 14.234054 0.573376 21.136065 1.705793a132.955605 132.955605 0 0 1 23.026157 5.930344c18.350073 6.555938 37.239733 9.820084 55.94407 9.820084 22.870527 0 45.465628-4.880861 66.449134-14.591389a197.371302 197.371302 0 0 0 44.286112-28.217256c0.181228-0.140272 0.360408-0.285664 0.535492-0.435151a198.114643 198.114643 0 0 0 38.972147-44.677237 199.857296 199.857296 0 0 0 19.58283-40.013438l56.4683-157.670149c31.475259-87.902603 19.003312-182.188107-34.217224-258.686675zM392.786984 197.873006c-27.458557-27.705313-44.204201-63.340618-48.135921-101.783416 78.376374 8.246372 140.84157 71.271634 149.012175 150.355512-38.102868-3.970627-73.419745-20.868831-100.876254-48.572096z m414.548642 463.675685l-56.470347 157.677316a166.261571 166.261571 0 0 1-16.284896 33.279344 164.691955 164.691955 0 0 1-31.92884 36.740078c-0.177132 0.138225-0.352217 0.279521-0.522181 0.42696a164.057146 164.057146 0 0 1-37.27045 23.838098c-30.242501 13.995489-64.858016 15.288656-97.465692 3.634793a166.027101 166.027101 0 0 0-28.766058-7.41293 163.99776 163.99776 0 0 0-26.471531-2.140944c-18.849729 0-37.432224 3.212952-55.224279 9.551826-10.635097 3.78428-21.62241 6.227271-32.666038 7.257299-22.452781 2.10818-44.865631-1.654599-64.818084-10.887996-40.375894-18.680788-70.918393-52.166957-86.007391-94.290624l-56.4683-157.670149c-27.750364-77.498904-16.751788-160.62713 30.166734-228.070456 46.919545-67.439231 120.661814-106.117523 202.320764-106.117523h125.360423c81.672261 0 155.423745 38.68034 202.345338 106.12469 46.922617 67.438207 57.919145 150.563361 30.170828 228.060218z"
      fill="#333333" p-id="3165"></path>
</svg>