<?xml version="1.0" standalone="no"?><!DOCTYPE svg PUBLIC "-//W3C//DTD SVG 1.1//EN"
    "http://www.w3.org/Graphics/SVG/1.1/DTD/svg11.dtd">
<svg t="1638175930810" class="icon" viewBox="0 0 1024 1024" version="1.1" xmlns="http://www.w3.org/2000/svg" p-id="3295"
     width="200" height="200">
  <defs>
    <style type="text/css"></style>
  </defs>
  <path
      d="M582.53546 775.768218c46.813061 0 84.888285 37.970787 84.888285 84.784872 0 46.917497-37.970787 84.888285-84.888285 84.888285-29.336362 0-55.136225-14.87603-70.427952-37.450654-15.188315 22.574624-41.09159 37.450654-70.427952 37.450654-46.917497 0-84.888285-37.970787-84.888285-84.888285s37.970787-84.784872 84.888285-84.784872h2.912954v-96.019966h134.926584v96.019966h3.016366z"
      fill="#F2F2F2" p-id="3296"></path>
  <path
      d="M429.299758 860.656502c0-46.917497 37.970787-84.784872 84.888285-84.784872h2.912954v-96.019965h-72.508487v96.019965h-2.912954c-46.917497 0-84.888285 37.970787-84.888285 84.784872 0 46.917497 37.970787 84.888285 84.888285 84.888285 13.003344 0 25.279729-2.912954 36.202537-8.114291-28.712816-13.627914-48.582335-42.964276-48.582335-76.773994z"
      fill="#E6E6E6" p-id="3297"></path>
  <path
      d="M515.22831 78.663062c120.050554 1.664838 217.110788 101.116867 216.070521 221.167421-0.415697 49.310317-17.165437 94.77185-45.044811 131.182236-52.638968 68.764138-80.519366 153.340138-80.519366 239.89326v8.842273H418.480362v-7.802006c0-86.656534-27.151391-171.649255-79.999232-240.308957-28.503944-37.034956-45.461532-83.43232-45.461532-133.678468-0.103412-122.235526 99.660902-220.960596 222.208712-219.295759z"
      fill="#F7B239" p-id="3298"></path>
  <path
      d="M512.107508 78.663062c-51.183004 0-92.586878 98.203913-92.586878 219.191322 0 50.350585 7.17846 96.747948 19.245972 133.678468 22.366775 68.659702 33.809717 153.652423 33.809717 240.308958v7.906442h-54.095957v-7.802006c0-86.656534-27.151391-171.649255-79.999232-240.308957-28.503944-37.034956-45.461532-83.43232-45.461532-133.678468-0.103412-121.091846 97.997088-219.295759 219.08791-219.295759z"
      fill="#E09B2D" p-id="3299"></path>
  <path
      d="M567.971715 587.578095c-1.144704 0-2.39282-0.104436-3.537524-0.415697-8.634425-1.976099-14.043611-10.507111-12.067512-19.141536 14.563745-64.290783 43.068712-125.356328 82.287616-176.539332 20.389652-26.631257 31.313485-58.569312 31.624746-92.170157 0.62457-68.971987-45.357096-130.557666-111.623978-149.699202-8.529989-2.496232-13.420065-11.33953-10.922809-19.766106 2.497256-8.529989 11.33953-13.420065 19.766106-10.922808 80.102645 23.094757 135.551154 97.372518 134.823172 180.595965-0.312285 40.675892-13.523477 79.166813-38.178636 111.416129-36.514822 47.64548-63.042667 104.446542-76.566145 164.262947-1.664838 7.386309-8.323164 12.379797-15.605036 12.379797zM607.815189 901.956965c-4.057658 0-8.218728-1.560401-11.33953-4.681204-6.241605-6.241605-6.241605-16.333019 0-22.574624a19.75382 19.75382 0 0 0 5.825907-14.043611c0-10.922809-8.94671-19.869519-19.869518-19.869518h-1.352553l-0.62457-16.020734-0.207849-16.020734h2.080535c28.60838 0 51.80655 23.199194 51.80655 51.80655 0 13.835762-5.409186 26.84013-15.188315 36.618235-2.912954 3.224215-6.969587 4.78564-11.130657 4.78564z m-27.255828-77.086279zM530.521062 817.692226c-8.842274 0-16.020734-7.17846-16.020734-16.020733v-72.925209c0-8.842274 7.17846-16.020734 16.020734-16.020733s16.020734 7.17846 16.020733 16.020733v72.925209a15.962372 15.962372 0 0 1-16.020733 16.020733z"
      fill="#FFFFFF" p-id="3300"></path>
  <path
      d="M514.60374 127.661094m-16.020733 0a16.020734 16.020734 0 1 0 32.041467 0 16.020734 16.020734 0 1 0-32.041467 0Z"
      fill="#FFFFFF" p-id="3301"></path>
  <path
      d="M605.838066 695.768986c8.842274 0 16.020734-7.17846 16.020734-16.020734v-8.842273c0-83.43232 27.360264-165.199802 77.190714-230.218568 31.209049-40.675892 47.853328-89.361639 48.373463-140.752492 1.144704-128.997264-102.886141-235.524341-231.883405-237.292591h-3.328652c-62.210248 0-120.778537 24.030589-165.095365 67.723871-45.149247 44.524677-70.012255 104.029821-70.012255 167.488185 0 52.43112 16.853152 102.053722 48.790184 143.457597 49.414754 64.186347 76.670581 146.058265 76.670581 230.530853v7.906442c0 8.842274 7.17846 16.020734 16.020734 16.020734h10.299262v64.810917c-49.518166 6.449454-87.801238 48.790183-87.801238 99.973187 0 55.656358 45.25266 100.805606 100.804582 100.805606 26.631257 0 51.80655-10.402675 70.427952-28.60838 18.621402 18.205705 43.796695 28.60838 70.427952 28.60838 55.656358 0 100.805606-45.25266 100.805606-100.805606 0-51.183004-38.387509-93.627146-87.801239-99.973187v-64.810917h10.09039v-0.001024zM351.068776 421.85816c-27.568112-35.78684-42.131857-78.64668-42.131857-124.003776 0-54.82394 21.534356-106.214792 60.545411-144.705713 38.283072-37.762939 88.841506-58.464876 142.625178-58.464876h2.912954c111.416129 1.560401 201.297903 93.522709 200.362071 205.043276-0.415697 44.421265-14.87603 86.448686-41.71616 121.610955-52.638968 68.659702-82.183179 154.484842-83.744604 242.493929H434.293247c-1.664838-88.738093-31.105636-174.35436-83.224471-241.973795z m217.423073 365.353c3.120802 3.01739 7.386309 4.577791 11.651815 4.577792h2.39282c37.970787 0 68.867551 30.896764 68.867551 68.86755 0 37.970787-30.896764 68.867551-68.867551 68.867551-22.886909 0-44.316829-11.33953-57.21676-30.481066-3.016366-4.368919-7.906442-7.074024-13.212216-7.074024-5.305774 0-10.299262 2.600669-13.212216 7.074024-12.795495 19.0371-34.225415 30.481066-57.112324 30.481066-37.970787 0-68.867551-30.896764-68.867551-68.867551 0-37.970787 30.896764-68.867551 68.867551-68.86755h2.600669c4.368919 0 8.426576-1.560401 11.547379-4.577792s4.78564-7.17846 4.78564-11.442942v-79.999232h102.989553v79.999232a15.159646 15.159646 0 0 0 4.78564 11.442942z"
      fill="#333333" p-id="3302"></path>
</svg>