<?xml version="1.0" standalone="no"?><!DOCTYPE svg PUBLIC "-//W3C//DTD SVG 1.1//EN"
    "http://www.w3.org/Graphics/SVG/1.1/DTD/svg11.dtd">
<svg t="1638175992047" class="icon" viewBox="0 0 1024 1024" version="1.1" xmlns="http://www.w3.org/2000/svg" p-id="4622"
     width="200" height="200">
  <defs>
    <style type="text/css"></style>
  </defs>
  <path d="M44.137931 194.206897v829.793103h953.37931V194.206897z" fill="#F0785A" p-id="4623"></path>
  <path d="M79.448276 512h494.344827v406.068966h-494.344827z" fill="#B35A5B" p-id="4624"></path>
  <path d="M114.758621 547.310345h423.724138v335.448276h-423.724138z" fill="#B0D3F0" p-id="4625"></path>
  <path
      d="M273.655172 194.206897H33.156414a5.031724 5.031724 0 0 1-4.837517-6.408828l71.71531-155.789241A54.978207 54.978207 0 0 1 149.998345 0H308.965517l-35.310345 194.206897zM768 194.206897h-247.172414V0h211.862069z"
      fill="#ED7161" p-id="4626"></path>
  <path
      d="M397.241379 441.37931a123.586207 123.586207 0 0 1-123.586207-123.586207v-123.586206h247.172414v123.586206a123.586207 123.586207 0 0 1-123.586207 123.586207zM891.586207 441.37931a123.586207 123.586207 0 0 1-123.586207-123.586207v-123.586206h245.28331c1.041655 0 1.889103 0.847448 1.889104 1.889103V317.793103a123.586207 123.586207 0 0 1-123.586207 123.586207z"
      fill="#F0C419" p-id="4627"></path>
  <path
      d="M520.827586 194.206897h-247.172414l35.310345-194.206897h211.862069zM1008.904828 194.206897H768l-35.310345-194.206897h158.967173c21.486345 0 40.99531 12.499862 49.981793 32.026483l71.821241 156.16a4.731586 4.731586 0 0 1-4.555034 6.020414z"
      fill="#F3D55B" p-id="4628"></path>
  <path
      d="M150.068966 441.37931a123.586207 123.586207 0 0 1-123.586207-123.586207v-118.607448c0-2.754207 2.224552-4.978759 4.978758-4.978758H273.655172v123.586206a123.586207 123.586207 0 0 1-123.586206 123.586207zM644.413793 441.37931a123.586207 123.586207 0 0 1-123.586207-123.586207v-123.586206h247.172414v123.586206a123.586207 123.586207 0 0 1-123.586207 123.586207z"
      fill="#D36259" p-id="4629"></path>
  <path d="M644.413793 512h282.482759v512h-282.482759z" fill="#B35A5B" p-id="4630"></path>
  <path d="M679.724138 547.310345h211.862069v441.37931h-211.862069z" fill="#B0D3F0" p-id="4631"></path>
  <path
      d="M856.275862 829.793103a17.655172 17.655172 0 0 1-17.655172-17.655172v-52.965517a17.655172 17.655172 0 1 1 35.310344 0v52.965517a17.655172 17.655172 0 0 1-17.655172 17.655172z"
      fill="#FFFFFF" p-id="4632"></path>
  <path
      d="M308.965517 670.896552a17.602207 17.602207 0 0 0 12.482207-5.172966l70.62069-70.620689a17.637517 17.637517 0 1 0-24.964414-24.964414l-70.62069 70.620689A17.637517 17.637517 0 0 0 308.965517 670.896552zM308.965517 759.172414a17.602207 17.602207 0 0 0 12.482207-5.172966l35.310345-35.310345a17.637517 17.637517 0 1 0-24.964414-24.964413l-35.310345 35.310344A17.637517 17.637517 0 0 0 308.965517 759.172414zM367.051034 658.361379c-3.195586 3.336828-5.12 7.944828-5.12 12.535173a17.725793 17.725793 0 0 0 30.190345 12.535172c3.177931-3.354483 5.12-7.944828 5.12-12.535172s-1.942069-9.198345-5.12-12.535173c-6.532414-6.532414-18.537931-6.532414-25.070345 0zM402.414345 648.068414a17.602207 17.602207 0 0 0 24.964414 0l52.965517-52.965517a17.637517 17.637517 0 1 0-24.964414-24.964414l-52.965517 52.965517a17.637517 17.637517 0 0 0 0 24.964414zM455.379862 658.414345l-158.896552 158.896552a17.637517 17.637517 0 1 0 24.964414 24.964413l158.896552-158.896551a17.637517 17.637517 0 1 0-24.964414-24.964414zM515.707586 623.051034c-6.532414-6.532414-18.537931-6.532414-25.070345 0-3.195586 3.336828-5.12 7.944828-5.12 12.535173s1.924414 9.18069 5.12 12.535172c3.336828 3.177931 7.944828 5.12 12.535173 5.12s9.18069-1.942069 12.535172-5.12c3.177931-3.354483 5.12-7.944828 5.12-12.535172s-1.942069-9.198345-5.12-12.535173z"
      fill="#FFFFFF" p-id="4633"></path>
  <path
      d="M132.413793 1024h-105.931034l-16.172138-97.015172A7.662345 7.662345 0 0 1 17.867034 918.068966H150.068966l-17.655173 105.931034z"
      fill="#CB8252" p-id="4634"></path>
  <path d="M61.793103 723.862069h35.310345v194.206897h-35.310345z" fill="#7F6E5D" p-id="4635"></path>
  <path
      d="M153.388138 647.591724c5.367172-13.559172 9.198345-28.689655 6.302896-43.149241a39.070897 39.070897 0 0 0-8.050758-17.037242 36.422621 36.422621 0 0 1-7.256276-30.208c2.153931-10.063448 0.865103-21.362759-3.813517-30.384551-8.527448-16.436966-25.494069-25.63531-42.354759-28.036414-12.393931-1.765517-26.07669 0.123586-35.257379 9.586758l-10.910897 9.427863c-12.393931 5.843862-21.892414 18.785103-24.61131 33.491862-1.465379 7.980138-0.935724 16.34869 1.359448 24.081655 3.425103 11.528828 0.582621 23.993379-5.967448 33.686069-14.759724 21.821793-18.661517 53.089103-7.785931 77.841655 1.377103 3.142621 3.160276 6.249931 5.243586 9.057103 7.13269 9.586759 9.816276 22.298483 6.832552 34.321656a56.584828 56.584828 0 0 0-1.412414 8.386206c-1.165241 12.83531 1.447724 25.688276 4.096 38.258759 2.754207 13.064828 6.144 27.17131 15.677793 35.36331 12.923586 11.105103 31.638069 6.797241 46.433104-0.829793 20.903724-10.78731 40.253793-28.548414 47.633655-52.912551a66.048 66.048 0 0 0-2.48938-44.049656c-5.826207-13.488552-5.826207-29.501793 2.612966-41.136551 5.632-7.750621 10.134069-16.684138 13.718069-25.758897z"
      fill="#24AE5F" p-id="4636"></path>
</svg>