<?xml version="1.0" standalone="no"?><!DOCTYPE svg PUBLIC "-//W3C//DTD SVG 1.1//EN"
    "http://www.w3.org/Graphics/SVG/1.1/DTD/svg11.dtd">
<svg t="1638175984553" class="icon" viewBox="0 0 1024 1024" version="1.1" xmlns="http://www.w3.org/2000/svg" p-id="4327"
     width="200" height="200">
  <defs>
    <style type="text/css"></style>
  </defs>
  <path
      d="M900.413793 353.103448h-17.655172a123.586207 123.586207 0 0 1-123.586207-123.586207 123.586207 123.586207 0 1 1-247.172414 0 123.586207 123.586207 0 1 1-247.172414 0 123.586207 123.586207 0 0 1-123.586207 123.586207H123.586207a123.586207 123.586207 0 0 1-123.586207-123.586207v794.482759h1024V229.517241a123.586207 123.586207 0 0 1-123.586207 123.586207z"
      fill="#F5EFCA" p-id="4328"></path>
  <path d="M70.62069 441.37931h547.310344v459.034483H70.62069z" fill="#7F6E5D" p-id="4329"></path>
  <path
      d="M635.586207 918.068966H52.965517V423.724138h582.62069v494.344828zM88.275862 882.758621h512V459.034483H88.275862v423.724138z"
      fill="#CBB292" p-id="4330"></path>
  <path
      d="M158.896552 600.275862a17.637517 17.637517 0 0 1-12.482207-30.137379l70.620689-70.62069a17.637517 17.637517 0 1 1 24.964414 24.964414l-70.620689 70.62069A17.602207 17.602207 0 0 1 158.896552 600.275862zM158.896552 688.551724a17.637517 17.637517 0 0 1-12.482207-30.137379l35.310345-35.310345a17.637517 17.637517 0 1 1 24.964413 24.964414l-35.310344 35.310345A17.602207 17.602207 0 0 1 158.896552 688.551724zM229.517241 617.931034c-4.590345 0-9.198345-1.942069-12.535172-5.12-3.354483-3.354483-5.12-7.944828-5.12-12.535172s1.924414-9.198345 5.12-12.535172c6.532414-6.532414 18.537931-6.532414 25.070345 0 3.177931 3.336828 5.12 7.944828 5.12 12.535172s-1.942069 9.18069-5.12 12.535172c-3.354483 3.177931-7.944828 5.12-12.535173 5.12zM264.827586 582.62069a17.637517 17.637517 0 0 1-12.482207-30.13738l52.965518-52.965517a17.637517 17.637517 0 1 1 24.964413 24.964414l-52.965517 52.965517A17.602207 17.602207 0 0 1 264.827586 582.62069zM158.896552 776.827586a17.637517 17.637517 0 0 1-12.482207-30.137379l158.896552-158.896552a17.637517 17.637517 0 1 1 24.964413 24.964414l-158.896551 158.896552A17.602207 17.602207 0 0 1 158.896552 776.827586zM353.103448 582.62069a17.302069 17.302069 0 0 1-12.535172-5.296552c-3.195586-3.177931-5.12-7.768276-5.12-12.358621s1.924414-9.198345 5.12-12.535172c6.532414-6.532414 18.537931-6.532414 25.070345 0 3.177931 3.336828 5.12 7.944828 5.12 12.535172s-1.942069 9.18069-5.12 12.535173c-3.354483 3.177931-7.944828 5.12-12.535173 5.12zM141.241379 971.034483H123.586207a17.655172 17.655172 0 1 1 0-35.310345h17.655172a17.655172 17.655172 0 1 1 0 35.310345zM70.62069 971.034483H52.965517a17.655172 17.655172 0 1 1 0-35.310345h17.655173a17.655172 17.655172 0 1 1 0 35.310345zM194.206897 1024h-17.655173a17.655172 17.655172 0 1 1 0-35.310345h17.655173a17.655172 17.655172 0 1 1 0 35.310345zM52.965517 1024H35.310345a17.655172 17.655172 0 1 1 0-35.310345h17.655172a17.655172 17.655172 0 1 1 0 35.310345zM123.586207 1024H105.931034a17.655172 17.655172 0 1 1 0-35.310345h17.655173a17.655172 17.655172 0 1 1 0 35.310345zM282.482759 971.034483h-17.655173a17.655172 17.655172 0 1 1 0-35.310345h17.655173a17.655172 17.655172 0 1 1 0 35.310345zM211.862069 971.034483h-17.655172a17.655172 17.655172 0 1 1 0-35.310345h17.655172a17.655172 17.655172 0 1 1 0 35.310345zM264.827586 1024h-17.655172a17.655172 17.655172 0 1 1 0-35.310345h17.655172a17.655172 17.655172 0 1 1 0 35.310345zM423.724138 971.034483h-17.655172a17.655172 17.655172 0 1 1 0-35.310345h17.655172a17.655172 17.655172 0 1 1 0 35.310345zM353.103448 971.034483h-17.655172a17.655172 17.655172 0 1 1 0-35.310345h17.655172a17.655172 17.655172 0 1 1 0 35.310345zM476.689655 1024h-17.655172a17.655172 17.655172 0 1 1 0-35.310345h17.655172a17.655172 17.655172 0 1 1 0 35.310345zM335.448276 1024h-17.655173a17.655172 17.655172 0 1 1 0-35.310345h17.655173a17.655172 17.655172 0 1 1 0 35.310345zM406.068966 1024h-17.655173a17.655172 17.655172 0 1 1 0-35.310345h17.655173a17.655172 17.655172 0 1 1 0 35.310345zM564.965517 971.034483h-17.655172a17.655172 17.655172 0 1 1 0-35.310345h17.655172a17.655172 17.655172 0 1 1 0 35.310345zM494.344828 971.034483h-17.655173a17.655172 17.655172 0 1 1 0-35.310345h17.655173a17.655172 17.655172 0 1 1 0 35.310345zM547.310345 1024h-17.655173a17.655172 17.655172 0 1 1 0-35.310345h17.655173a17.655172 17.655172 0 1 1 0 35.310345zM635.586207 971.034483h-17.655173a17.655172 17.655172 0 1 1 0-35.310345h17.655173a17.655172 17.655172 0 1 1 0 35.310345zM617.931034 1024h-17.655172a17.655172 17.655172 0 1 1 0-35.310345h17.655172a17.655172 17.655172 0 1 1 0 35.310345z"
      fill="#CBB292" p-id="4331"></path>
  <path
      d="M300.137931 0h-52.965517v0.017655C132.449103 0.211862 32.467862 77.188414 1.836138 187.798069c-3.760552 13.576828 1.483034 6.408828 4.837517 6.408828H512V0H300.137931z"
      fill="#71C285" p-id="4332"></path>
  <path
      d="M794.482759 194.206897h223.249655c3.142621 0 7.079724 3.03669 4.537379-6.020414l-0.105931-0.406069A254.605241 254.605241 0 0 0 794.482759 0.759172V0H512v194.206897h282.482759zM512 194.206897H264.827586c20.44469-112.463448 118.395586-194.206897 232.695173-194.206897H512v194.206897z"
      fill="#F3D55B" p-id="4333"></path>
  <path d="M759.172414 194.206897H512V0h14.477241C640.776828 0 738.727724 81.743448 759.172414 194.206897z"
        fill="#71C285" p-id="4334"></path>
  <path
      d="M141.241379 353.103448H123.586207a123.586207 123.586207 0 0 1-123.586207-123.586207v-32.485517A2.824828 2.824828 0 0 1 2.824828 194.206897H264.827586v35.310344a123.586207 123.586207 0 0 1-123.586207 123.586207z"
      fill="#68AD77" p-id="4335"></path>
  <path
      d="M388.413793 353.103448a123.586207 123.586207 0 0 1-123.586207-123.586207v-35.310344h247.172414v35.310344a123.586207 123.586207 0 0 1-123.586207 123.586207z"
      fill="#DDC357" p-id="4336"></path>
  <path
      d="M635.586207 353.103448a123.586207 123.586207 0 0 1-123.586207-123.586207v-35.310344h247.172414v35.310344a123.586207 123.586207 0 0 1-123.586207 123.586207z"
      fill="#68AD77" p-id="4337"></path>
  <path
      d="M900.413793 353.103448h-17.655172a123.586207 123.586207 0 0 1-123.586207-123.586207v-35.310344h262.002758a2.824828 2.824828 0 0 1 2.824828 2.824827V229.517241a123.586207 123.586207 0 0 1-123.586207 123.586207z"
      fill="#DDC357" p-id="4338"></path>
  <path d="M953.37931 1006.344828H688.551724V556.137931a132.413793 132.413793 0 0 1 264.827586 0V1006.344828z"
        fill="#7F6E5D" p-id="4339"></path>
  <path
      d="M971.034483 1024H670.896552V556.137931c0-82.749793 67.319172-150.068966 150.068965-150.068965s150.068966 67.319172 150.068966 150.068965V1024z m-264.827586-35.310345h229.517241V556.137931c0-63.276138-51.482483-114.758621-114.758621-114.758621S706.206897 492.861793 706.206897 556.137931V988.689655z"
      fill="#CBB292" p-id="4340"></path>
  <path d="M688.551724 759.172414h264.827586" fill="#D0E8F9" p-id="4341"></path>
  <path d="M688.551724 741.517241h264.827586v35.310345H688.551724z" fill="#CBB292" p-id="4342"></path>
</svg>