<?xml version="1.0" standalone="no"?><!DOCTYPE svg PUBLIC "-//W3C//DTD SVG 1.1//EN"
    "http://www.w3.org/Graphics/SVG/1.1/DTD/svg11.dtd">
<svg t="1638175988367" class="icon" viewBox="0 0 1024 1024" version="1.1" xmlns="http://www.w3.org/2000/svg" p-id="4472"
     width="200" height="200">
  <defs>
    <style type="text/css"></style>
  </defs>
  <path d="M64 264h896v624H64z" fill="#FFE1B2" p-id="4473"></path>
  <path d="M64 792h896v96H64zM64 232h896v112H64z" fill="#FFB980" p-id="4474"></path>
  <path d="M384 376H160a16 16 0 0 0-16 16v480h256V392a16 16 0 0 0-16-16z" fill="#7E5C62" p-id="4475"></path>
  <path
      d="M1008 904H16c-8.844 0-16-7.156-16-16s7.156-16 16-16h992c8.844 0 16 7.156 16 16s-7.156 16-16 16zM352 680c-8.844 0-16-7.156-16-16v-32c0-8.844 7.156-16 16-16s16 7.156 16 16v32c0 8.844-7.156 16-16 16z"
      fill="#5C546A" p-id="4476"></path>
  <path d="M80 312c-26.51 0-48-21.49-48-48V152c0-17.674 14.326-32 32-32h64v144c0 26.51-21.49 48-48 48z" fill="#FF4F19"
        p-id="4477"></path>
  <path d="M176 312c-26.51 0-48-21.49-48-48V120h96v144c0 26.51-21.49 48-48 48z" fill="#E9001E" p-id="4478"></path>
  <path d="M272 312c-26.51 0-48-21.49-48-48V120h96v144c0 26.51-21.49 48-48 48z" fill="#FF4F19" p-id="4479"></path>
  <path d="M368 312c-26.51 0-48-21.49-48-48V120h96v144c0 26.51-21.49 48-48 48z" fill="#E9001E" p-id="4480"></path>
  <path d="M464 312c-26.51 0-48-21.49-48-48V120h96v144c0 26.51-21.49 48-48 48z" fill="#FF4F19" p-id="4481"></path>
  <path d="M560 312c-26.51 0-48-21.49-48-48V120h96v144c0 26.51-21.49 48-48 48z" fill="#E9001E" p-id="4482"></path>
  <path d="M656 312c-26.51 0-48-21.49-48-48V120h96v144c0 26.51-21.49 48-48 48z" fill="#FF4F19" p-id="4483"></path>
  <path d="M752 312c-26.51 0-48-21.49-48-48V120h96v144c0 26.51-21.49 48-48 48z" fill="#E9001E" p-id="4484"></path>
  <path d="M848 312c-26.51 0-48-21.49-48-48V120h96v144c0 26.51-21.49 48-48 48z" fill="#FF4F19" p-id="4485"></path>
  <path d="M944 312c-26.51 0-48-21.49-48-48V120h64c17.674 0 32 14.326 32 32v112c0 26.51-21.49 48-48 48z" fill="#E9001E"
        p-id="4486"></path>
  <path d="M880 392H480a16 16 0 0 0-16 16v320a16 16 0 0 0 16 16h400a16 16 0 0 0 16-16V408a16 16 0 0 0-16-16z"
        fill="#53DCFF" p-id="4487"></path>
  <path d="M795.176 744H880a16 16 0 0 0 16-16v-18.94L578.94 392H464c-5.67 0-10.414 3.12-13.256 7.568L795.176 744z"
        fill="#B3F4FF" p-id="4488"></path>
  <path d="M668.118 392L896 619.882V552l-160-160z" fill="#FFFFFF" p-id="4489"></path>
  <path
      d="M880 760H480c-17.64 0-32-14.36-32-32V408c0-17.64 14.36-32 32-32h400c17.64 0 32 14.36 32 32v320c0 17.64-14.36 32-32 32zM480 408v320h400.032L880 408H480z"
      fill="#7E5C62" p-id="4490"></path>
  <path d="M352 584H192a16 16 0 0 1-16-16v-144a16 16 0 0 1 16-16h160a16 16 0 0 1 16 16v144a16 16 0 0 1-16 16z"
        fill="#53DCFF" p-id="4491"></path>
  <path d="M272.198 408H192a16 16 0 0 0-16 16v23.568L312.432 584H352a16 16 0 0 0 16-16v-64.198L272.198 408z"
        fill="#B3F4FF" p-id="4492"></path>
</svg>