<?xml version="1.0" standalone="no"?><!DOCTYPE svg PUBLIC "-//W3C//DTD SVG 1.1//EN"
    "http://www.w3.org/Graphics/SVG/1.1/DTD/svg11.dtd">
<svg t="1638175996731" class="icon" viewBox="0 0 1024 1024" version="1.1" xmlns="http://www.w3.org/2000/svg" p-id="4766"
     width="200" height="200">
  <defs>
    <style type="text/css"></style>
  </defs>
  <path d="M64.412903 388.129032h895.174194v586.322581H64.412903z" fill="#E8E8E8" p-id="4767"></path>
  <path d="M924.903226 264.258065H99.096774l82.580645-148.645162h660.645162z" fill="#F15249" p-id="4768"></path>
  <path d="M115.612903 412.903226h792.774194v545.032258H115.612903z" fill="#D6D6D6" p-id="4769"></path>
  <path d="M115.612903 545.032258h792.774194v412.903226H115.612903z" fill="#E8E8E8" p-id="4770"></path>
  <path d="M115.612903 578.064516h792.774194v379.870968H115.612903z" fill="#3AC2F2" p-id="4771"></path>
  <path d="M115.612903 578.064516h792.774194v379.870968" fill="#009CC6" p-id="4772"></path>
  <path
      d="M264.258065 561.548387h33.032258v412.903226h-33.032258zM660.645161 561.548387h49.548387v412.903226h-49.548387z"
      fill="#E8E8E8" p-id="4773"></path>
  <path d="M710.193548 578.064516h198.193549v396.387097h-198.193549z" fill="#50BB75" p-id="4774"></path>
  <path d="M710.193548 974.451613V578.064516h198.193549" fill="#0AA06E" p-id="4775"></path>
  <path
      d="M478.967742 723.406452c0-18.167742-11.56129-33.032258-28.077419-37.987097 13.212903-4.954839 21.470968-18.167742 21.470967-33.032258 0-19.819355-14.864516-34.683871-34.683871-34.683871s-34.683871 14.864516-34.683871 34.683871c0 14.864516 8.258065 26.425806 21.470968 33.032258-16.516129 4.954839-28.077419 19.819355-28.077419 37.987097v100.748387c0 11.56129 0 21.470968 16.516129 28.077419V974.451613h49.548387v-122.219355c16.516129-6.606452 16.516129-16.516129 16.516129-28.077419v-100.748387z"
      fill="#007093" p-id="4776"></path>
  <path
      d="M99.096774 115.612903L0 264.258065h99.096774l82.580645-148.645162zM924.903226 115.612903h-82.580645l82.580645 148.645162h99.096774zM658.993548 115.612903l34.683871 148.645162h115.612904l-52.851613-148.645162zM267.56129 115.612903L214.709677 264.258065h115.612904l34.683871-148.645162zM457.496774 115.612903l-11.56129 148.645162h132.129032l-11.56129-148.645162z"
      fill="#FFC114" p-id="4777"></path>
  <path
      d="M0 264.258065v168.464516c0 29.729032 19.819355 52.851613 49.548387 52.851613s49.548387-23.122581 49.548387-52.851613V264.258065H0z"
      fill="#FCA12A" p-id="4778"></path>
  <path
      d="M99.096774 264.258065v168.464516c0 29.729032 28.077419 52.851613 57.806452 52.851613s57.806452-23.122581 57.806451-52.851613V264.258065H99.096774zM330.322581 264.258065v168.464516c0 29.729032 26.425806 52.851613 57.806451 52.851613s57.806452-23.122581 57.806452-52.851613V264.258065h-115.612903z"
      fill="#C93131" p-id="4779"></path>
  <path
      d="M214.709677 264.258065v168.464516c0 29.729032 24.774194 52.851613 57.806452 52.851613s57.806452-23.122581 57.806452-52.851613V264.258065h-115.612904zM1024 264.258065v168.464516c0 29.729032-19.819355 52.851613-49.548387 52.851613s-49.548387-23.122581-49.548387-52.851613V264.258065h99.096774z"
      fill="#FCA12A" p-id="4780"></path>
  <path
      d="M924.903226 264.258065v168.464516c0 29.729032-28.077419 52.851613-57.806452 52.851613s-57.806452-23.122581-57.806451-52.851613V264.258065h115.612903zM693.677419 264.258065v168.464516c0 29.729032-26.425806 52.851613-57.806451 52.851613s-57.806452-23.122581-57.806452-52.851613V264.258065h115.612903z"
      fill="#C93131" p-id="4781"></path>
  <path
      d="M809.290323 264.258065v168.464516c0 29.729032-24.774194 52.851613-57.806452 52.851613s-57.806452-23.122581-57.806452-52.851613V264.258065h115.612904zM445.935484 264.258065v168.464516c0 29.729032 28.077419 52.851613 66.064516 52.851613s66.064516-23.122581 66.064516-52.851613V264.258065h-132.129032z"
      fill="#FCA12A" p-id="4782"></path>
  <path
      d="M1004.180645 966.193548c0 13.212903-9.909677 24.774194-23.12258 24.774194H42.941935c-13.212903 0-23.122581-11.56129-23.12258-24.774194s9.909677-24.774194 23.12258-24.774193h938.11613c13.212903 0 23.122581 11.56129 23.12258 24.774193z"
      fill="#A8A8A8" p-id="4783"></path>
  <path d="M926.554839 115.612903H97.445161l16.516129-66.064516h796.07742z" fill="#D6D6D6" p-id="4784"></path>
  <path
      d="M929.858065 49.548387c0 11.56129-8.258065 16.516129-19.819355 16.516129H113.96129c-9.909677 0-19.819355-4.954839-19.819355-16.516129s8.258065-16.516129 19.819355-16.516129h796.07742c9.909677 0 19.819355 4.954839 19.819355 16.516129z"
      fill="#E8E8E8" p-id="4785"></path>
  <path
      d="M781.212903 776.258065m-31.380645 0a31.380645 31.380645 0 1 0 62.76129 0 31.380645 31.380645 0 1 0-62.76129 0Z"
      fill="#FFC114" p-id="4786"></path>
  <path
      d="M802.683871 753.135484c11.56129 11.56129 11.56129 31.380645 0 44.593548-11.56129 11.56129-31.380645 11.56129-44.593548 0"
      fill="#FCA12A" p-id="4787"></path>
</svg>