<?xml version="1.0" standalone="no"?><!DOCTYPE svg PUBLIC "-//W3C//DTD SVG 1.1//EN"
    "http://www.w3.org/Graphics/SVG/1.1/DTD/svg11.dtd">
<svg t="1638175934623" class="icon" viewBox="0 0 1024 1024" version="1.1" xmlns="http://www.w3.org/2000/svg" p-id="3432"
     width="200" height="200">
  <defs>
    <style type="text/css"></style>
  </defs>
  <path
      d="M560.171757 117.863535v122.156687c0 16.020734-12.963412 28.878686-28.878686 28.878685h-5.269938c-16.020734 0-28.878686-12.964436-28.878685-28.878685V117.863535c0-16.020734 12.964436-28.878686 28.878685-28.878685h5.269938c15.91425 0 28.878686 12.963412 28.878686 28.878685z"
      fill="#F95428" p-id="3433"></path>
  <path
      d="M591.791383 446.916729v59.022894H465.418337v-59.022894c0-31.936007 25.927848-57.863855 57.863855-57.863855h10.645336c31.936007 0 57.863855 25.927848 57.863855 57.863855zM876.471435 785.982498l-56.493896 101.709696c-16.337114 29.300526-47.21852 47.5349-80.735406 47.534901h-453.949798c-33.516886 0-64.503752-18.23335-80.735405-47.534901l-56.493897-101.709696h728.408402z"
      fill="#E6E6E6" p-id="3434"></path>
  <path
      d="M346.95071 887.692194l-56.493897-101.709696H147.958597l56.493896 101.709696c16.337114 29.300526 47.21852 47.5349 80.735406 47.534901h142.498216c-33.516886-0.001024-64.398291-18.234374-80.735405-47.534901z"
      fill="#CCCCCC" p-id="3435"></path>
  <path
      d="M807.119587 785.982498H217.311469c54.491177-107.505911 166.107988-181.17958 294.904571-181.17958s240.41237 73.673669 294.903547 181.17958z"
      fill="#F7B239" p-id="3436"></path>
  <path
      d="M583.885965 612.497416c-23.082471-5.059017-47.007599-7.798935-71.565489-7.798934-128.796583 0-240.413394 73.673669-294.904571 181.17958h143.236438c43.951301-86.954485 125.423905-151.774617 223.233622-173.380646z"
      fill="#E09B2D" p-id="3437"></path>
  <path
      d="M942.450606 769.645384H817.026701c-28.563329-52.382997-70.09007-96.650679-120.786728-128.374742a345.883821 345.883821 0 0 0-104.555074-43.529461V446.916729c0-37.205945-27.508727-67.98189-63.133793-73.357288V283.127842c18.33881-5.797239 31.619627-22.87155 31.619627-43.10762V117.863535c0-24.97973-20.23607-45.2158-45.2158-45.2158h-5.269938c-24.97973 0-45.2158 20.23607-45.2158 45.2158v122.156687c0 20.130609 13.279793 37.311405 31.619627 43.10762v90.431599c-35.729502 5.269938-63.133793 36.151343-63.133793 73.357288v150.824452a345.883821 345.883821 0 0 0-104.555074 43.529461c-50.802118 31.725087-92.434319 75.991745-120.892188 128.374742H82.084886c-8.958997 0-16.231654 7.272657-16.231654 16.231654s7.272657 16.231654 16.231654 16.231654h56.388437l51.855696 93.276977c19.182492 34.465004 55.544755 55.966596 94.963316 55.966596h453.949798c39.418561 0 75.886285-21.396132 94.963316-55.966596l51.855696-93.276977h56.388437c8.958997 0 16.231654-7.272657 16.231654-16.231654 0.001024-8.958997-7.271634-16.231654-16.23063-16.231654z m-163.156127 0h-98.757835c21.816949-17.812533 40.89398-38.470443 50.802118-59.866575 18.12789 17.708097 34.254084 37.733246 47.955717 59.866575z m-74.199946-82.737102c-5.797239 24.030589-38.681364 57.442014-81.367142 82.737102H504.837922v-5.586319c14.650775-2.950838 38.470443-8.748076 64.187371-19.182491 48.483018-19.604332 83.158942-47.42944 101.709697-81.261683a312.514374 312.514374 0 0 1 34.359543 23.293391z m-354.032924 82.737102c-2.950838-20.65791-13.490713-48.061177-44.267682-72.408147a313.034508 313.034508 0 0 1 29.300526-22.449709c18.971571 13.912554 52.488457 45.32126 56.177517 94.963316h-41.210361v-0.10546z m73.779129 0c-3.056298-55.228374-34.992305-92.434319-59.022894-112.775849 14.966132-7.904395 30.670485-14.439855 46.796679-19.815253 16.547011 16.126194 60.498312 65.451869 59.550195 132.696562l-47.32398-0.10546z m87.374278-148.610812c19.182492 0 38.154063 1.791799 56.598333 5.059018-23.503288 15.915273-59.339274 35.729502-93.909738 37.311405-8.748076-14.650775-18.128914-26.666069-26.349689-35.940423a318.101717 318.101717 0 0 1 63.661094-6.43z m-21.711488 73.462748c52.488457-7.904395 101.393316-43.740381 119.310285-58.180236 10.961716 3.583599 21.607052 7.694498 32.041467 12.437136-29.722367 53.647495-106.874174 75.570928-140.390036 82.737101-2.530021-13.279793-6.43-25.611468-10.961716-36.994001z m38.048602-105.609675v-66.717392h30.670485v69.457309c-10.223495-1.368935-20.44699-2.318076-30.670485-2.739917zM496.932504 117.863535c0-6.956277 5.691779-12.648055 12.648055-12.648055h5.269938c6.956277 0 12.648055 5.691779 12.648055 12.648055v122.156687c0 6.956277-5.691779 12.648055-12.648055 12.648055h-5.269938c-6.956277 0-12.648055-5.691779-12.648055-12.648055V117.863535z m-31.619627 329.053194c0-22.977011 18.655191-41.632201 41.632201-41.632201h10.645336c22.977011 0 41.632201 18.655191 41.632201 41.632201v42.68578h-93.804278v-42.68578h-0.10546z m0 75.254548h30.670485v66.717391c-10.223495 0.527301-20.44699 1.369959-30.670485 2.739918v-69.457309z m-182.233158 197.937511c14.018014 10.434415 30.038748 26.981426 34.992305 49.642056h-72.829987c10.960692-18.022429 23.714208-34.570464 37.837682-49.642056zM805.749628 879.786776c-13.385253 24.136049-38.892284 39.208665-66.506471 39.208665h-453.949798c-27.614187 0-53.120195-14.966132-66.506471-39.208665l-43.10762-77.572624h673.17798L805.749628 879.786776z"
      fill="#333333" p-id="3438"></path>
  <path
      d="M748.413074 903.922825c-2.634457 0-5.375398-0.632761-7.904395-2.00272-7.904395-4.32182-10.645336-14.228934-6.323516-22.133329l29.195066-52.593918c4.32182-7.904395 14.228934-10.645336 22.133329-6.323515 7.904395 4.32182 10.645336 14.228934 6.323516 22.133329l-29.195066 52.593917c-2.951861 5.269938-8.53818 8.326235-14.228934 8.326236zM723.749724 766.905467c-4.531716 0-9.064457-1.89726-12.331675-5.586319-39.102181-45.004879-92.96162-75.570928-151.668133-86.21524-8.853536-1.580879-14.756235-10.012575-13.174332-18.866111 1.580879-8.853536 10.012575-14.756235 18.866111-13.069896 65.97917 11.909834 126.477483 46.374838 170.428784 96.860576 5.902699 6.745357 5.164478 17.074312-1.580879 22.97701-2.951861 2.635481-6.745357 3.899979-10.539876 3.89998zM538.986546 482.751692c-8.958997 0-16.231654-7.272657-16.231655-16.231654v-26.033309c0-8.958997 7.272657-16.231654 16.231655-16.231654s16.231654 7.272657 16.231654 16.231654v25.927849c0.10546 8.96002-7.272657 16.337114-16.231654 16.337114z"
      fill="#FFFFFF" p-id="3439"></path>
  <path
      d="M513.164158 655.605036m-16.231654 0a16.231654 16.231654 0 1 0 32.463308 0 16.231654 16.231654 0 1 0-32.463308 0Z"
      fill="#FFFFFF" p-id="3440"></path>
</svg>