<?xml version="1.0" standalone="no"?><!DOCTYPE svg PUBLIC "-//W3C//DTD SVG 1.1//EN"
    "http://www.w3.org/Graphics/SVG/1.1/DTD/svg11.dtd">
<svg t="1638175968362" class="icon" viewBox="0 0 1024 1024" version="1.1" xmlns="http://www.w3.org/2000/svg" p-id="3570"
     width="200" height="200">
  <defs>
    <style type="text/css"></style>
  </defs>
  <path
      d="M717.349417 382.535844c14.482858 7.551154 24.723759 22.240837 26.171533 39.309005 5.999968-2.689747 12.723823-4.137521 19.757915-4.13752 27.103268 0 49.137281 22.034012 49.13728 49.13728 0 1.55221-0.103412 2.999984-0.206824 4.551171 1.344361-0.103412 2.689747-0.206825 4.034108-0.206825 27.103268 0 49.137281 22.034012 49.13728 49.13728H159.671845c0-27.103268 22.034012-49.137281 49.13728-49.13728 1.344361 0 2.689747 0.103412 4.034109 0.206825-0.103412-1.551186-0.206825-2.999984-0.206825-4.551171 0-27.103268 22.034012-49.137281 49.13728-49.13728 7.034092 0 13.654535 1.55221 19.757915 4.13752 2.069272-25.137409 23.171549-44.895324 48.930456-44.895323 9.310189 0 17.999904 2.689747 25.447646 7.137504 6.413618-19.757915 24.930584-34.033948 46.757771-34.033948a48.93148 48.93148 0 0 1 31.757851 11.689699c8.06924-15.930632 24.620347-26.896444 43.757787-26.896444 13.44771 0 25.551058 5.379493 34.447598 14.068185 8.89654-8.689715 20.999888-14.068184 34.447598-14.068185 19.137441 0 35.585134 10.964788 43.757787 26.896444 8.586302-7.344329 19.654503-11.689699 31.861264-11.689699 8.06924 0 15.620395 1.96586 22.240837 5.379494 11.586286 5.896556 20.37839 16.240869 24.413522 28.757867 7.447742-4.55117 16.137457-7.137505 25.447645-7.137505 7.964804-0.103412 15.722783 1.96586 22.550051 5.482906z"
      fill="#F2F2F2" p-id="3571"></path>
  <path
      d="M601.180412 354.915513c3.827283 1.862447 7.447742 4.137521 10.65455 6.93068a48.311005 48.311005 0 0 1 8.276066-11.586286 46.85504 46.85504 0 0 0-18.930616 4.655606zM386.322172 471.188955c1.344361 0 2.689747 0.103412 4.034108 0.206825-0.103412-1.551186-0.206825-2.999984-0.206825-4.551171 0-27.103268 22.034012-49.137281 49.137281-49.13728 7.034092 0 13.654535 1.55221 19.757915 4.13752 2.069272-25.137409 23.171549-44.895324 48.930456-44.895323 9.310189 0 17.999904 2.689747 25.447646 7.137504 6.413618-19.757915 24.930584-34.033948 46.757771-34.033948 0.723887 0 1.55221 0.103412 2.276097 0.103412-8.89654-9.310189-21.51695-15.206745-35.481722-15.206744-13.44771 0-25.551058 5.379493-34.447598 14.068184-8.89654-8.689715-20.999888-14.068184-34.447598-14.068184-19.137441 0-35.688547 10.964788-43.757787 26.896443-8.586302-7.344329-19.654503-11.689699-31.757851-11.689699-21.827187 0-40.344153 14.276033-46.757771 34.033949-7.447742-4.55117-16.137457-7.137505-25.447646-7.137505-25.757883 0-46.757771 19.757915-48.930456 44.895324-5.999968-2.689747-12.723823-4.137521-19.757915-4.137521-27.103268 0-49.137281 22.034012-49.137281 49.137281 0 1.55221 0.103412 2.999984 0.206825 4.55117-1.344361-0.103412-2.689747-0.206825-4.034108-0.206825-27.103268 0-49.137281 22.034012-49.137281 49.137281h177.513047c0.104436-27.206681 22.138448-49.240693 49.240693-49.240693z"
      fill="#E6E6E6" p-id="3572"></path>
  <path
      d="M838.692114 855.904651v5.379493c0 45.723647-37.033932 82.756555-82.756555 82.756555H269.014606c-45.723647 0-82.756555-37.033932-82.756555-82.756555v-5.379493h652.434063z"
      fill="#E6E6E6" p-id="3573"></path>
  <path
      d="M332.323484 861.284144v-5.379493H186.258051v5.379493c0 45.723647 37.033932 82.756555 82.756555 82.756555h146.065433c-45.722623 0.103412-82.756555-37.032908-82.756555-82.756555z"
      fill="#CCCCCC" p-id="3574"></path>
  <path
      d="M865.173885 520.326235h35.171484c0 143.273297-77.688323 268.442254-193.236853 335.57944H317.738237c-115.652967-67.136161-193.340266-192.306142-193.340266-335.57944h740.775914z"
      fill="#2BA5F7" p-id="3575"></path>
  <path
      d="M320.945046 520.326235H124.501384c0 143.273297 77.688323 268.442254 193.340266 335.57944h196.34025C398.632345 788.76849 320.945046 663.598509 320.945046 520.326235z"
      fill="#2197D8" p-id="3576"></path>
  <path
      d="M678.040411 824.767274A18.960308 18.960308 0 0 1 661.69613 815.353672c-5.276081-8.999952-2.172685-20.586238 6.827267-25.861295 61.550866-35.791959 109.342762-92.273569 134.790408-159.203929 3.723871-9.723839 14.58627-14.689683 24.413522-10.964788 9.723839 3.723871 14.689683 14.58627 10.964787 24.413521-28.44763 74.998576-82.136081 138.307454-151.134688 178.444783a18.83949 18.83949 0 0 1-9.517015 2.58531z"
      fill="#FFFFFF" p-id="3577"></path>
  <path
      d="M837.036492 578.669269m-18.930616 0a18.930616 18.930616 0 1 0 37.861232 0 18.930616 18.930616 0 1 0-37.861232 0Z"
      fill="#FFFFFF" p-id="3578"></path>
  <path
      d="M863.415873 726.183499c36.620283-62.171341 55.861136-133.445022 55.861136-205.960676 0-10.447726-8.48289-18.930616-18.930616-18.930616h-18.930616c-6.93068-23.999872-26.793031-42.516838-51.412353-47.688483-6.10338-31.240789-33.723711-54.825987-66.722511-54.825987-2.069272 0-4.240933 0.103412-6.310206 0.310237-3.413634-7.757979-8.172653-14.793095-14.068184-20.689651L894.346425 153.402595c5.793143-8.689715 3.517046-20.37839-5.172668-26.171533-8.689715-5.793143-20.379414-3.517046-26.171533 5.172669L709.901675 359.881357a67.226263 67.226263 0 0 0-15.206745-1.759035c-5.586318 0-11.171613 0.723887-16.551106 2.069273-2.896572-4.137521-6.206793-7.861392-9.930664-11.27605L781.279793 87.300558c4.137521-9.620427-0.310237-20.689651-9.827252-24.827171-9.620427-4.137521-20.689651 0.310237-24.827171 9.827251L634.179212 332.261027c-3.827283-0.620475-7.757979-1.034124-11.793111-1.034124-9.310189 0-18.413554 1.862447-26.793031 5.482906-12.620411-13.03406-29.99984-20.586238-48.827044-20.586239-12.310173 0-24.103284 3.206809-34.447598 9.310189-10.344313-6.10338-22.137425-9.310189-34.447598-9.310189-18.723791 0-36.206633 7.551154-48.827043 20.586239-8.379477-3.620459-17.482842-5.482906-26.793031-5.482906-22.654487 0-43.240725 11.069224-55.654311 28.964692-5.379493-1.344361-10.964788-2.069272-16.551106-2.069273-27.516918 0-51.826003 16.861344-62.378166 41.068041a62.894204 62.894204 0 0 0-6.310205-0.310238c-32.9988 0-60.619131 23.585198-66.722511 54.825988-24.723759 5.172669-44.481674 23.689635-51.412354 47.688483h-19.034028c-10.447726 0-18.930616 8.48289-18.930616 18.930616 0 72.515654 19.344265 143.790359 55.861136 205.960676 24.930584 42.412402 57.515734 79.963396 95.687203 110.790535h-70.964468c-10.447726 0-18.930616 8.48289-18.930616 18.930616v5.379494c0 56.06796 45.619211 101.687171 101.687171 101.687171h486.920953c56.06796 0 101.687171-45.619211 101.687171-101.687171v-5.379494c0-10.447726-8.48289-18.930616-18.930616-18.930616h-70.963444c38.58819-30.825092 71.069928-68.376086 96.103924-110.892924zM208.809125 490.016158c0.827299 0 1.655623 0.103412 2.482922 0.103413 5.586318 0.41365 11.069224-1.551186 14.99992-5.586319 3.930696-3.930696 5.896556-9.413602 5.379494-14.99992-0.103412-1.137537-0.103412-2.069272-0.103413-2.793159 0-16.654519 13.551122-30.206665 30.206665-30.206665 4.137521 0 8.276065 0.827299 12.103349 2.586335 5.586318 2.482922 11.999936 2.069272 17.274993-1.034125 5.276081-3.103396 8.689715-8.586302 9.206777-14.689682 1.344361-15.516982 14.482858-27.620331 30.103252-27.620331 5.482906 0 10.861376 1.55221 15.620395 4.447758 4.965844 2.999984 10.964788 3.620459 16.447694 1.55221 5.379493-2.069272 9.620427-6.413618 11.379461-11.896523 4.034108-12.516998 15.620395-20.896476 28.757867-20.896476 9.206777 0 15.723807 3.930696 19.55109 7.240917 4.447758 3.723871 10.240901 5.276081 15.930632 4.137521 5.689731-1.137537 10.551138-4.757995 13.137473-9.930664 5.172669-10.240901 15.516982-16.551106 26.896443-16.551106 7.965828 0 15.516982 3.103396 21.206713 8.689714 7.344329 7.240917 19.137441 7.240917 26.48177 0 5.689731-5.586318 13.240885-8.689715 21.206713-8.689714 11.379462 0 21.723775 6.310205 26.896444 16.551106 2.586334 5.172669 7.447742 8.793127 13.137472 9.930664 5.689731 1.137537 11.586286-0.41365 15.930632-4.137521 3.206809-2.793159 8.379477-5.896556 15.310157-6.93068l-22.654486 52.240677c-4.137521 9.620427 0.310237 20.689651 9.827251 24.827172 2.482922 1.034124 4.965844 1.55221 7.447742 1.55221 7.344329 0 14.276033-4.240933 17.379429-11.379462l20.586239-47.688483c0.103412 0.310237 0.206825 0.620475 0.413649 1.034125 1.759035 5.482906 5.999968 9.930664 11.379462 11.896523s11.482874 1.447774 16.447694-1.55221a36.668405 36.668405 0 0 1 5.379493-2.586334l-33.930536 50.378229c-5.793143 8.689715-3.517046 20.37839 5.172669 26.171533 3.206809 2.172685 6.93068 3.206809 10.551138 3.206809 6.10338 0 11.999936-2.896572 15.723807-8.379478l38.998768-57.929384c2.069272 3.723871 3.517046 7.861392 3.827284 12.310174 0.517062 6.10338 3.930696 11.482874 9.206777 14.689683 5.276081 3.103396 11.689699 3.517046 17.274993 1.034124 3.827283-1.655623 7.965828-2.586334 12.103348-2.586335 16.654519 0 30.206665 13.551122 30.206665 30.206665 0 0.827299 0 1.759035-0.103412 2.793159-0.517062 5.586318 1.447774 11.069224 5.379493 14.99992s9.413602 5.999968 14.99992 5.586319c0.827299-0.103412 1.654599-0.103412 2.482922-0.103413 9.517014 0 17.999904 4.447758 23.585199 11.379462H185.222903c5.586318-6.929656 14.069208-11.378438 23.586222-11.378438z m547.023022 435.197338H269.014606c-30.620315 0-56.274785-21.620363-62.481578-50.37823H818.312701c-6.205769 28.758891-31.861264 50.37823-62.480554 50.37823z m-53.998688-88.136049H323.013295c-53.067976-31.757851-97.54965-76.653175-128.997265-129.927976-29.99984-50.998704-47.171421-108.617851-50.171405-167.89262h737.156479a368.993937 368.993937 0 0 1-50.171405 167.89262c-31.343178 53.274801-75.929288 98.066713-128.99624 129.927976z"
      fill="#333333" p-id="3579"></path>
</svg>