<?xml version="1.0" standalone="no"?><!DOCTYPE svg PUBLIC "-//W3C//DTD SVG 1.1//EN"
    "http://www.w3.org/Graphics/SVG/1.1/DTD/svg11.dtd">
<svg t="1638175972681" class="icon" viewBox="0 0 1024 1024" version="1.1" xmlns="http://www.w3.org/2000/svg" p-id="3709"
     width="200" height="200">
  <defs>
    <style type="text/css"></style>
  </defs>
  <path d="M426.923321 823.885709H739.278993v71.40781H426.923321z" fill="#CCCCCC" p-id="3710"></path>
  <path d="M426.923321 823.885709h85.501591v71.40781h-85.501591z" fill="#B3B3B3" p-id="3711"></path>
  <path
      d="M903.495864 497.331819h41.550291c0 143.963396-84.039484 268.300958-205.766138 326.55389h-312.356696c-121.726655-58.358392-205.766138-182.590494-205.766139-326.55389h682.338682z"
      fill="#E6E6E6" p-id="3712"></path>
  <path
      d="M415.23055 497.331819H221.260595c0 143.963396 84.039484 268.300958 205.767162 326.55389h193.969955c-121.726655-58.252932-205.767162-182.58947-205.767162-326.55389z"
      fill="#CCCCCC" p-id="3713"></path>
  <path
      d="M817.473115 374.14408c4.802022 6.055258 5.950822 14.40709 5.950822 23.593389-6.994161-1.461084-14.302654-2.296575-21.71456-2.296574-38.209353 0-71.512247 20.983506-88.945943 52.094261l-278.636056-24.846625c-8.456269-7.829651-18.16475-14.198218-28.917593-18.895804l345.658566-53.1376c16.598205 13.361703 53.242037 6.889724 66.604764 23.488953z"
      fill="#90BC42" p-id="3714"></path>
  <path
      d="M434.022941 422.688531L712.657974 447.535156c-8.247396 14.720399-13.049418 31.73635-13.049418 49.797687H466.594781c0-29.440799-12.528261-56.061817-32.57184-74.644312zM750.867327 350.654103L405.208761 403.792727c-12.422801-5.42864-26.098837-8.351833-40.505928-8.351832-6.055258 0-11.901643 0.522182-17.643592 1.56552l-3.967555-3.967555c0.417745-7.30747 1.87883-13.884909 5.846385-18.895804 13.258291-16.599229 50.006559-10.126226 66.605788-23.488953 16.599229-13.258291 18.373622-50.423281 37.687171-59.71504 19.00024-9.187323 49.171069 12.527237 70.154575 7.725215 20.357912-4.59315 38.104916-37.373862 59.923912-37.373863 21.71456 0 39.566001 32.780713 59.923913 37.373863 20.983506 4.802022 51.154335-16.912538 70.154575-7.725215 19.1057 9.291759 20.880093 46.561185 37.479322 59.71504z"
      fill="#9AD14B" p-id="3715"></path>
  <path
      d="M434.022941 422.688531c20.044603 18.582495 32.57184 45.203513 32.57184 74.644312H262.706449c0-48.85776 34.346233-89.676996 80.177388-99.59435 1.357672-0.313309 2.71432-0.522182 4.071992-0.83549 5.741949-1.044363 11.69277-1.565521 17.643592-1.565521 14.40709 0 28.083127 3.027629 40.505927 8.351833 10.75182 4.800998 20.565761 11.169565 28.917593 18.999216zM712.657974 447.535156c17.434719-31.110756 50.73659-52.094261 88.945942-52.094261 7.516342 0 14.720399 0.83549 21.71456 2.296574 45.830131 9.917353 80.177388 50.73659 80.177388 99.59435H699.712992c0-18.060313 4.697586-35.077287 12.944982-49.796663z"
      fill="#F95428" p-id="3716"></path>
  <path
      d="M259.887693 234.042779c19.731294 19.731294 19.731294 51.57208 0 71.303374l-2.296575 2.296575-2.296575 2.296575c-19.731294 19.731294-51.57208 19.731294-71.303374 0l-90.40805-90.512487c-19.731294-19.731294-19.731294-51.57208 0-71.303374l4.593149-4.697586c19.731294-19.731294 51.57208-19.731294 71.303374 0l90.408051 90.616923z"
      fill="#F7B239" p-id="3717"></path>
  <path
      d="M853.17702 513.826611a16.351449 16.351449 0 0 1-16.390356-16.390356c0-16.390356-11.588334-30.797447-27.456509-34.241797-2.505447-0.522182-5.010895-0.83549-7.516342-0.83549a16.351449 16.351449 0 0 1-16.390356-16.390356c0-9.082887 7.411906-16.390356 16.390356-16.390357 4.906458 0 9.708481 0.522182 14.511527 1.565521 31.006319 6.681876 53.450909 34.659542 53.450909 66.396915-0.208873 8.874014-7.517366 16.28592-16.599229 16.28592zM413.66503 513.826611a16.351449 16.351449 0 0 1-16.390357-16.390356c0-16.390356-11.588334-30.797447-27.456509-34.241797-2.505447-0.522182-5.010895-0.83549-7.516342-0.83549a16.351449 16.351449 0 0 1-16.390356-16.390356c0-9.082887 7.411906-16.390356 16.390356-16.390357 4.906458 0 9.708481 0.522182 14.511527 1.565521 31.006319 6.681876 53.450909 34.659542 53.450909 66.396915-0.208873 8.874014-7.516342 16.28592-16.599228 16.28592z"
      fill="#FFFFFF" p-id="3718"></path>
  <path
      d="M271.162718 288.329179c-2.505447 6.159694-6.159694 12.006079-11.170589 17.016974l-2.296575 2.296575-2.296575 2.296575c-19.731294 19.731294-51.57208 19.731294-71.303374 0l-90.512486-90.512487c-19.731294-19.731294-19.731294-51.57208 0-71.303374l4.593149-4.697586c5.010895-5.010895 10.85728-8.769578 17.016974-11.170589-7.203033 18.16475-3.445374 39.566001 11.170589 54.2864l90.512487 90.512487c14.720399 14.720399 36.12165 18.478058 54.2864 11.275025z"
      fill="#E09B2D" p-id="3719"></path>
  <path
      d="M717.564433 794.863679c-6.159694 0-12.006079-3.445374-14.824836-9.291759-3.967556-8.14296-0.417745-17.955877 7.725215-21.923433 49.484378-23.697826 91.451389-60.759403 121.205497-107.007279 12.110516-18.895804 22.132305-39.149279 29.648647-60.237221 3.027629-8.560705 12.422801-13.049418 20.983506-10.02179 8.560705 3.027629 13.049418 12.422801 10.02179 20.983506a327.232726 327.232726 0 0 1-32.885149 67.02251c-33.094021 51.467644-79.655207 92.495752-134.568225 118.907898-2.5034 1.045387-5.008847 1.567568-7.306445 1.567568z"
      fill="#FFFFFF" p-id="3720"></path>
  <path
      d="M693.031117 858.232966m-16.390357 0a16.390356 16.390356 0 1 0 32.780713 0 16.390356 16.390356 0 1 0-32.780713 0Z"
      fill="#FFFFFF" p-id="3721"></path>
  <path
      d="M890.550882 547.756123m-16.390356 0a16.390356 16.390356 0 1 0 32.780713 0 16.390356 16.390356 0 1 0-32.780713 0Z"
      fill="#FFFFFF" p-id="3722"></path>
  <path
      d="M945.046155 480.941463h-26.203273c-6.26413-44.891228-37.896044-81.847345-79.86408-95.836691-1.044363-7.203033-3.445374-14.615963-8.665141-21.192378-11.170589-13.884909-29.230902-16.912538-45.30795-19.417985-9.187323-1.461084-19.626858-3.132065-23.906698-6.57744-4.279841-3.340938-8.14296-13.153855-11.588334-21.71456-6.055258-15.137121-12.944982-32.258531-29.126466-39.983745-15.868175-7.620778-33.40733-2.505447-48.85776 2.087702-8.97845 2.71432-19.209113 5.741949-24.742189 4.384277-5.010895-1.148799-12.73611-8.14296-19.417985-14.198218-12.110516-11.066153-25.889964-23.59339-44.055738-23.59339s-31.945222 12.527237-44.055738 23.59339c-6.786312 6.159694-14.40709 13.049418-19.417985 14.198218-5.533076 1.253236-15.763738-1.774393-24.742189-4.384277-15.45043-4.59315-32.989585-9.812917-48.85776-2.087702-16.181484 7.829651-23.072232 24.951061-29.126465 39.983745-3.445374 8.560705-7.411906 18.269186-11.588334 21.71456-4.279841 3.445374-14.720399 5.115331-23.906699 6.57744-15.763738 2.505447-33.616203 5.42864-44.786792 18.895803l-56.582975-56.582974c17.330283-25.994401 14.511527-61.384997-8.351832-84.352793l-90.512487-90.512486c-12.631673-12.631673-29.439775-19.626858-47.292239-19.626858s-34.659542 6.994161-47.292239 19.626858l-4.59315 4.593149c-12.631673 12.631673-19.626858 29.439775-19.626858 47.292239s6.994161 34.659542 19.626858 47.29224l90.512487 90.512486c13.049418 13.049418 30.170829 19.522421 47.292239 19.522422a67.061417 67.061417 0 0 0 37.060553-11.170589l59.506168 59.506167c-36.330523 16.390356-63.055978 50.632153-68.693491 91.45139h-26.203273a16.351449 16.351449 0 0 0-16.390356 16.390356c0 72.764458 20.670197 143.336778 59.819476 204.305054 36.226087 56.374102 86.544931 101.996384 145.946662 132.479498v61.177148c0 9.082887 7.411906 16.390356 16.390356 16.390356h312.356696a16.351449 16.351449 0 0 0 16.390357-16.390356v-61.177148c59.401731-30.484138 109.721599-76.105396 145.946662-132.479498 39.149279-60.968276 59.819476-131.540595 59.819476-204.305054-0.416721-9.081863-7.828627-16.390356-16.911514-16.390356z m-59.506167 0H717.773305c7.725215-39.253716 42.384757-69.006799 83.830611-69.0068 41.445854 0.001024 76.210856 29.649671 83.936072 69.0068z m-403.70365 0a115.101093 115.101093 0 0 0-12.4228-38.522662l219.234325 19.522422c-1.983266 6.159694-3.340938 12.527237-4.27984 19.00024H481.836338zM779.681508 376.8584c4.279841 0.731054 9.082887 1.461084 13.258291 2.505447-36.851681 2.609884-69.006799 22.236741-88.841506 50.945462l-229.778297-20.461324 272.789672-41.968036c10.02179 5.324204 21.923433 7.30747 32.57184 8.978451z m-393.159678 0c13.153855-2.087702 28.083127-4.59315 39.149279-13.362728 10.961716-8.769578 16.390356-22.132305 21.610124-35.077287 3.654247-9.082887 8.247396-20.461324 12.944982-22.654487 4.488713-2.192138 15.972611 1.253236 25.26437 3.967556 12.840546 3.863119 27.456509 8.14296 41.341418 5.010895 13.467164-3.027629 24.115571-12.631673 34.241797-21.923433 7.30747-6.681876 16.494793-15.032684 21.923432-15.032684s14.615963 8.351833 22.027869 15.032684c10.230662 9.291759 20.774633 18.895804 34.241797 21.923433 13.884909 3.132065 28.500872-1.148799 41.445854-5.010895 9.291759-2.71432 20.774633-6.159694 25.264371-3.967556 4.697586 2.296575 9.291759 13.5716 12.944982 22.654487 1.357672 3.236502 2.71432 6.577439 4.071992 9.917353l-316.009919 48.544451c-10.648407-4.070968-21.923433-6.681876-33.825076-7.516342 4.384277-1.044363 9.082887-1.775417 13.362728-2.505447z m-190.837891-78.507431l-90.512486-90.512487c-6.368567-6.368567-9.917353-14.929272-9.917353-24.011135s3.54981-17.643592 9.917353-24.011134l4.593149-4.59315c6.368567-6.368567 14.929272-9.917353 24.011135-9.917353s17.643592 3.54981 24.011135 9.917353l90.512486 90.512487c13.258291 13.258291 13.258291 34.763978 0 48.022269l-4.593149 4.59315c-13.258291 13.258291-34.868415 13.258291-48.02227 0z m169.018894 113.480282c41.55029 0 76.209832 29.753084 83.830611 69.006799H280.767786c7.725215-39.253716 42.384757-69.006799 83.935047-69.006799z m78.71528 467.071912v-38.522662h279.470523v38.522662H443.418113z m430.53354-195.013295a346.250372 346.250372 0 0 1-138.534756 123.606508H430.890876a346.250372 346.250372 0 0 1-138.534756-123.606508c-32.885149-51.049898-51.467644-109.512727-54.2864-170.063257h690.169357c-2.81978 60.55053-21.506711 119.013359-54.287424 170.063257z"
      fill="#333333" p-id="3723"></path>
</svg>