<?xml version="1.0" standalone="no"?><!DOCTYPE svg PUBLIC "-//W3C//DTD SVG 1.1//EN"
    "http://www.w3.org/Graphics/SVG/1.1/DTD/svg11.dtd">
<svg t="1638175976668" class="icon" viewBox="0 0 1024 1024" version="1.1" xmlns="http://www.w3.org/2000/svg" p-id="3853"
     width="200" height="200">
  <defs>
    <style type="text/css"></style>
  </defs>
  <path
      d="M688.939671 466.529253c45.691907 0 82.790343 37.098437 82.790343 82.790343s-37.098437 82.790343-82.790343 82.790344c-45.796343 0-82.790343-37.098437-82.790344-82.790344s37.098437-82.790343 82.790344-82.790343z"
      fill="#F2F2F2" p-id="3854"></path>
  <path
      d="M807.046891 285.544211c183.500728 118.840322 172.601469 367.944454 19.701601 491.815125a276.006719 276.006719 0 0 1-8.697906 6.811909c-94.737037 70.21396-282.219655 78.074328-381.778169-73.148416-85.514902-130.15835-173.649927-128.901019-223.742492-131.835474-49.988129-2.934455-165.89502-5.868911-121.146112-143.467836 44.853344-137.598925 273.836082-316.174764 584.561729-213.682819 52.921561 17.501272 95.364679 40.347225 131.101349 63.507511z m-13.623818 450.524901c64.660406-52.398355 100.710384-133.198266 96.204265-216.197482-4.191787-78.493097-43.70045-145.878062-111.399747-189.788407-39.508663-25.570512-77.235766-43.910346-118.945783-57.638601-55.647144-18.339834-111.085414-27.666405-164.742124-27.666405-110.875518 0-191.360072 39.089894-239.357768 71.891084-55.647144 38.041435-97.985826 88.76369-113.286768 135.608492-8.383573 25.780409-9.850801 46.320572-3.877454 55.018478 10.37503 15.195482 54.704145 17.711168 73.672645 18.758603 0 0 8.383573 0.418769 10.689362 0.628665 27.561969 1.467228 69.166525 3.667557 115.905867 24.73195 54.179916 24.417617 100.814821 67.175068 142.420401 130.472684 55.85704 84.886237 137.284592 97.567056 180.776169 97.567056 46.216136 0 92.955477-14.148047 124.919129-37.831539 2.410226-1.887021 4.716016-3.668581 7.021806-5.554578z"
      fill="#B27214" p-id="3855"></path>
  <path
      d="M889.627338 519.87163c4.401683 83.00024-31.543859 163.799126-96.204265 216.197482a154.687571 154.687571 0 0 1-6.916346 5.344682c-31.963652 23.684515-78.702993 37.831539-124.919129 37.831539-43.490553 0-124.919129-12.68082-180.776169-97.567057-41.708993-63.297615-88.239461-105.95063-142.420401-130.472683-46.739341-21.064393-88.344921-23.264722-115.905866-24.73195-2.30579-0.104436-10.689363-0.628666-10.689363-0.628666-18.9685-1.048459-63.193178-3.563121-73.672645-18.758603-5.973347-8.697906-4.506119-29.238069 3.877454-55.018478 15.195482-46.844801 57.534164-97.461596 113.285744-135.608491 47.997696-32.80119 128.37679-71.891084 239.357768-71.891085 53.55125 0 108.989521 9.326571 164.742125 27.666406 41.708993 13.728254 79.436095 32.068088 118.945782 57.6386 67.593837 44.014782 107.103524 111.399747 111.295311 189.998304z m-117.792887 29.447966c0-45.796343-37.098437-82.790343-82.790344-82.790343-45.796343 0-82.790343 37.098437-82.790343 82.790343s37.098437 82.790343 82.790343 82.790344 82.790343-37.098437 82.790344-82.790344z"
      fill="#F95428" p-id="3856"></path>
  <path
      d="M568.422225 299.901131m-15.929608 0a15.929608 15.929608 0 1 0 31.859216 0 15.929608 15.929608 0 1 0-31.859216 0Z"
      fill="#FFFFFF" p-id="3857"></path>
  <path
      d="M836.809189 789.725823zM958.583967 516.204073c-2.514662-48.206569-15.615275-93.374246-38.670101-134.560033-24.73195-43.910346-59.734494-80.69445-104.063609-109.513751-43.910346-28.504967-88.029565-49.779257-134.874366-65.289071-77.025869-25.466076-153.632969-35.316877-227.620971-29.553426-65.498968 5.134785-127.539252 22.427184-184.653623 51.246484-93.479706 47.473467-167.256787 124.919129-192.40853 202.259331-15.824148 48.730798-14.252484 87.506359 4.716016 115.277201 29.553426 43.28168 90.335354 46.739341 126.70069 48.730798l3.877453 0.209897c2.30579 0.104436 4.61158 0.209896 7.021806 0.418769 50.616795 2.724559 127.015022 6.707473 204.355224 124.185003 56.066937 85.20057 132.359704 114.544099 186.435183 124.185003 17.082503 3.038892 34.373878 4.506119 51.76969 4.50612 60.991825 0 121.564881-18.234374 166.313789-51.455357 3.144352-2.30579 6.28768-4.716016 9.326571-7.230678 81.846321-66.23207 127.329355-168.409682 121.774778-273.41629zM816.792231 764.993873c-2.724559 2.20033-5.449118 4.296223-8.1747 6.39314-50.721231 37.516182-124.812645 53.235894-193.560401 41.079303-47.892236-8.489033-115.487097-34.478314-165.370791-110.246853-37.727103-57.219831-79.121762-95.5756-126.700689-116.954325-40.347225-18.234374-76.292767-20.121394-102.596382-21.483162-2.410226-0.104436-4.61158-0.209896-6.811909-0.418769l-3.98189-0.209896c-30.496424-1.677124-81.427552-4.61158-102.177612-34.898108-13.099589-19.178396-13.413922-48.626362-0.733102-87.506359 17.711168-54.495273 73.462748-131.416705 176.478923-183.605164 50.722255-25.674948 121.879214-49.673797 211.167133-49.673797 52.713712 0 111.81954 8.383573 176.584382 29.762299 44.748908 14.776713 85.305006 34.373878 127.539252 61.725951 77.969891 50.512359 123.451901 128.272353 128.272354 218.92204 5.029325 94.842498-36.052026 187.169309-109.934568 247.1137z"
      fill="#333333" p-id="3858"></path>
  <path
      d="M786.925496 316.669301c-40.661558-26.304638-79.645992-45.167677-122.613339-59.420161-57.324268-18.864063-114.438639-28.504967-169.667013-28.504967-114.962868 0-198.486314 40.557122-248.370007 74.615643-58.477163 40.032892-103.12061 93.689603-119.468987 143.782168-7.230678 22.217288-13.413922 52.084023-1.885997 68.956629 12.366487 18.025501 43.28168 23.264722 85.829235 25.674948 0 0 8.383573 0.524229 10.689363 0.628666 26.409074 1.362791 66.23207 3.458685 110.142416 23.370182 51.350921 23.160286 95.785496 63.92628 135.712928 124.709233 60.048827 91.173917 147.345289 104.797735 194.085654 104.797735 49.56936 0 99.767386-15.299918 134.455597-40.975891 2.515686-1.885997 5.030349-3.773017 7.440575-5.76345C871.916169 692.892892 910.063065 607.168093 905.451485 519.033068c-4.401683-83.837778-46.530469-155.624426-118.525989-202.363767z m-3.563121 407.033324a260.492809 260.492809 0 0 1-6.39314 4.925913c-29.34353 21.797495-72.51975 34.688211-115.487097 34.688211-40.347225 0-115.696994-11.737821-167.466684-90.440815-43.386117-65.917737-92.222375-110.456749-149.23231-136.237158-49.464924-22.321724-92.851041-24.627514-121.56488-26.094741-2.30579-0.104436-10.584926-0.628666-10.584927-0.628666-48.416465-2.724559-59.001392-9.117699-61.306158-11.842257-1.152895-2.620123-2.514662-15.300942 5.868911-41.080327 14.148047-43.596013 54.179916-91.173917 107.103524-127.329355 46.110676-31.543859 123.451901-69.062089 230.34553-69.062089 51.87515 0 105.636297 9.012239 159.711776 26.933303 40.347225 13.309485 76.921433 31.01963 115.277201 55.85704 63.297615 40.975891 100.291615 103.959173 104.169069 177.213048 4.086326 77.969891-29.657862 153.843889-90.440815 203.097893z"
      fill="#333333" p-id="3859"></path>
  <path
      d="M688.939671 450.600669c-54.495273 0-98.718927 44.329115-98.718928 98.718927 0 54.495273 44.329115 98.718927 98.718928 98.718928 54.495273 0 98.718927-44.329115 98.718927-98.718928 0.10546-54.494249-44.224679-98.718927-98.718927-98.718927z m0 165.579663c-36.88854 0-66.860736-29.972195-66.860736-66.860736s29.972195-66.860736 66.860736-66.860735 66.860736 29.972195 66.860735 66.860735-29.972195 66.860736-66.860735 66.860736zM397.496856 299.796695c-7.650471-4.401683-17.396836-1.78156-21.797494 5.76345l-92.431248 159.291984c-4.401683 7.650471-1.78156 17.396836 5.76345 21.797494 2.514662 1.467228 5.240245 2.20033 7.964804 2.20033 5.449118 0 10.793799-2.830019 13.833715-7.964804l92.431248-159.291983c4.506119-7.648423 1.885997-17.394788-5.764475-21.796471zM532.057914 302.940023c-7.650471-4.401683-17.396836-1.78156-21.797495 5.76345L388.380181 518.928632c-4.401683 7.650471-1.78156 17.396836 5.763451 21.797495 2.514662 1.467228 5.240245 2.20033 7.964804 2.200329 5.449118 0 10.793799-2.830019 13.833714-7.964804l121.879214-210.119698c4.506119-7.753884 1.885997-17.500248-5.76345-21.901931zM666.722383 332.912218c-7.545011-4.401683-17.396836-1.885997-21.797495 5.659014L484.793319 612.512775c-4.401683 7.545011-1.885997 17.396836 5.659014 21.797494a16.126194 16.126194 0 0 0 8.069241 2.20033c5.449118 0 10.793799-2.830019 13.728254-7.860368l160.130545-273.836082c4.507143-7.649447 1.887021-17.394788-5.65799-21.901931zM643.87643 656.527557c-7.545011-4.401683-17.396836-1.885997-21.797495 5.659014l-15.719711 26.933304c-4.401683 7.545011-1.885997 17.396836 5.659014 21.797494a16.126194 16.126194 0 0 0 8.06924 2.20033c5.449118 0 10.793799-2.830019 13.728255-7.859344l15.719711-26.933303c4.506119-7.649447 1.991457-17.395812-5.659014-21.797495zM795.413506 396.629625c-7.545011-4.401683-17.396836-1.885997-21.797495 5.659015l-19.701601 33.745212c-4.401683 7.545011-1.885997 17.396836 5.659014 21.797495a16.126194 16.126194 0 0 0 8.06924 2.200329c5.449118 0 10.793799-2.830019 13.728254-7.859343l19.807062-33.745213c4.401683-7.649447 1.885997-17.395812-5.764474-21.797495z"
      fill="#333333" p-id="3860"></path>
  <path
      d="M773.616011 704.525253c-4.296223 0-8.489033-1.677124-11.632361-5.030348-5.973347-6.392116-5.659014-16.558273 0.838562-22.531621 42.547555-39.71856 65.289072-95.680036 62.14472-153.632969-3.038892-57.219831-32.172525-106.579295-81.951782-138.85728-34.792647-22.53162-67.803734-38.565665-104.063609-50.512359-8.383573-2.724559-12.889692-11.737821-10.165133-20.121394s11.737821-12.889692 20.121394-10.165134c38.879997 12.785256 74.30131 29.972195 111.399748 53.971044 58.581599 37.936999 92.851041 96.099829 96.414161 163.903563 3.563121 67.384965-22.741517 132.46414-72.205417 178.574815a15.562033 15.562033 0 0 1-10.900283 4.401683z"
      fill="#FFFFFF" p-id="3861"></path>
</svg>